<svg width="800" height="565" fill="none" xmlns="http://www.w3.org/2000/svg">
  <g clip-path="url(#clip0)">
    <path d="M693.721 135.368c26.065 0 47.195-3.216 47.195-7.184S719.786 121 693.721 121c-26.066 0-47.196 3.216-47.196 7.184s21.13 7.184 47.196 7.184z" fill="#474961"/>
    <path d="M614.101 228.041l32.291-99.857h94.524l31.704 99.857H614.101z" fill="#474961"/>
    <path d="M693.36 235.225c43.774 0 79.26-3.216 79.26-7.184 0-3.967-35.486-7.184-79.26-7.184-43.773 0-79.259 3.217-79.259 7.184 0 3.968 35.486 7.184 79.259 7.184z" fill="#FFCB3D"/>
    <path d="M690.478 220.857h7.206v77.587h-7.206v-77.587z" fill="#B5B5B5"/>
    <path d="M689.037 298.444h10.088v391.527c0 2.778-2.259 5.029-5.044 5.029-2.786 0-5.044-2.251-5.044-5.029V298.444zM699.125 294.683h10.087l41.948 371.613c.278 2.466-1.501 4.691-3.976 4.969-.167.018-.335.028-.504.028-2.872 0-5.286-2.151-5.608-4.997l-41.947-371.613zM689.037 294.683H678.95l-41.948 371.613c-.279 2.466 1.501 4.691 3.975 4.969.168.018.336.028.505.028 2.872 0 5.286-2.151 5.607-4.997l41.948-371.613z" fill="#D8DEED"/>
    <path d="M671.024 285.513h46.114c1.99 0 3.603 1.608 3.603 3.592v6.169c0 1.815-1.357 3.344-3.164 3.566-10.894 1.334-18.726 2.001-23.496 2.001s-12.602-.667-23.497-2.001c-1.806-.222-3.163-1.751-3.163-3.566v-6.169c0-1.984 1.613-3.592 3.603-3.592z" fill="#D8DEED"/>
    <g clip-path="url(#clip1)">
      <path d="M543.327 325.239c2.973-3.353 6.296-6.452 9.95-9.238 10.622-3.991 30.892-8.211 45.355-3.604 16.914 5.388 27.354 20.121 27.354 20.121s2.478-2.583 28.349 69.67c17.247 48.168 33.982 113.441 50.206 195.818 1.553 9.223 10.517 61.249 26.892 156.078.014.078.026.155.037.233.688 4.751-2.605 9.159-7.356 9.847l-90.587 13.114c-4.36.631-8.503-2.1-9.641-6.356-11.298-42.248-17.407-65.341-18.327-69.281-1.979-7.867-3.925-16.776-5.939-26.981l-15.852-76.626c-.155-.743-.456-3.153-.901-7.231-7.395-27.118-13.719-50.305-18.97-69.562-4.221 16.206-8.789 33.583-13.704 52.132-2.386 104.003-4.17 163.147-5.35 177.431-.182 2.208-.762 10.341-1.738 24.399-.328 4.719-4.37 8.31-9.095 8.078l-93.387-4.572c-4.446-.218-8.008-3.758-8.253-8.202-4.129-74.94-1.396-145.434 8.2-211.483 14.894-102.512 37.401-144.402 50.825-183.834.15-.47 10.8-17.334 31.951-50.593 7.351.043 14.012.257 19.981.642z" fill="#FFCB3D"/>
      <path opacity=".176986" d="M530.359 347.546c-4.927 13.379-5.769 28.236-1.858 42.604l16.437 60.384s6.359 23.318 19.076 69.954c-4.252 16.422-8.859 34.05-13.821 52.885-2.449 103.676-4.264 162.657-5.444 176.941-.803 9.72-1.404 17.979-1.804 24.775-.28 4.764-4.348 8.411-9.114 8.17l-93.471-4.723c-4.447-.225-8.005-3.774-8.24-8.22-3.962-74.818-1.145-145.248 8.45-211.292 14.894-102.512 37.134-144.587 50.558-184.019.121-.379 19.305-14.909 39.231-27.459z" fill="#444"/>
      <path d="M522.758 183.31c1.878-.691 3.743-1.277 5.556-1.773l-.36-6.518c-.053-.949.667-1.764 1.615-1.83l40.772-2.838c.957-.066 1.787.656 1.856 1.613l.258 3.681c22.241-2.717 35.225-3.338 38.951-1.862 34.566 13.694 40.281 73.146 40.099 91.231-.049 4.85-7.8 9.204-23.253 13.06 1.684 16.44 2.676 25.727 3.247 30.552 0 0-.008.854.186 2.118.49 3.713-116.939 40.06-116.939 40.06-.089-.077-.171-.07-.171-.07s-1.668-.282-3.729-1.297c-1.024-.423-2.062-1.016-3.122-1.862-7.853-6.145-9.119-21.484-9.283-25.226-.105-1.186-.187-2.118-.187-2.118-.323-5.581-1.111-16.882-2.671-37.964-5.568 2.4-11.639 4.841-18.211 7.322l.243-86.73c.017-6.202 3.697-11.807 9.38-14.291 12.65-5.527 24.571-7.28 35.763-5.258z" fill="#DE3190"/>
      <path d="M516.81 806.144h-15.713l-49.45-1.532 2.535-25.464 63.042 3.063-.414 23.933zm130.83-31.093l61.483-8.88 5.056 37.123-58.405 6.682-8.134-34.925zm-78.567-636.633v32.125l-33.662 2.298.471-7.005c-4.809 1.226-4.531 1.083-4.994 1.184-5.59.804-10.24.146-11.086-.116-3.084-.581-6.096-3.496-8.572-8.175-3.358-6.245-5.939-15.702-6.686-26.789-.183-1.579-.105-3.132-.028-4.684l1.28-15.383c.277-3.438 1.418-6.787 3.474-9.693.837-1.3 1.646-2.342 2.611-3.195 10.397-10.705 26.638-7.2781 29.531-6.5431.337.1218.682.1579 1.019.2796 3.107 1.1908 6.105 1.7634 9.121 2.1646 1.383.1441 2.38 1.4616 2.234 2.8334l-2.412 21.9395c.833-.433 13.94-5.655 17.593-3.021 3.014 2.206 4.295 15.979.106 21.78zm-70.121 194.02l.89-.784c.402 0 .633.021.708.062l72.058-32.52 1.483-13.107c31.901-3.453 53.965-7.527 66.192-12.223.213 33.709-2.273 53.1-7.458 58.173-11.757 11.503-72.977 39.928-134.263 47.602-13.699 6.072-36.358 10.493-67.977 13.264-9.021-5.768-13.866-15.845-14.536-30.229l21.957-7.551c-.89-.305-1.346-.532-1.346-.532-4.751-10.853 55.436-20.456 63.115-22.527l-.823.372zm-17.983-44.939c-29.591 13.621-77.233 23.979-89.968 9.14-16.675-19.431-18.87-72.336-6.586-158.717-26.814-5.939-45.387-12.395-55.721-19.368-2.797-1.887-4.439-5.061-4.36-8.426.128-5.464 4.678-9.79 10.162-9.662 26.26.612 42.899.562 49.919-.151.176-.018.352-.035.528-.05 21.298-1.8706 40.085 13.815 41.962 35.035l8.053 91.017 42.636-20.507-.044 82.992c1.155-.435 2.295-.869 3.419-1.303z" fill="#F2A98A"/>
      <path opacity=".176986" d="M522.099 183.146c-7.805 2.961-15.765 7.772-21.086 15.589-1.526 2.267-3.445 5.677-4.748 10.485-.185.699-.377 1.314-.562 2.013-.445 1.49-1.4 4.646-2.17 8.042-.814 3.826-1.167 11.027-1.03 21.002l.023.254.201 4.165c1.138 15.082 2.063 27.447 2.81 37.548-5.531 2.388-11.564 4.815-18.098 7.282l.182-86.7c.014-6.186 3.671-11.783 9.331-14.279 12.408-5.473 24.124-7.273 35.147-5.401z" fill="#444"/>
      <path d="M535.895 166.04l13.333-3.326-13.817 10.424.484-7.098zM561.704 142.001l.082-.009c1.178-.398 4.626-1.603 6.927-5.191 2.302-3.587 3.097-8.637.662-12.893-2.357-4.162-7.316-6.856-11.61-5.913-2.415.53-4.162 2.174-4.353 2.328-2.642 2.682-3.488 5.725-3.488 5.725l-.439 2.091c-.477-.71-.916-1.412-1.308-2.099-5.455-7.096-10.902-14.278-16.348-21.46-3.557.585-9.189.953-15.44-1.093-2.192-.752-4.053-2.165-5.7-3.12.496-.557.982-1.0281 1.392-1.5943 7.627-8.5108 21.67-8.2594 27.993-6.9017.769.1674 3.499.801 7.448 1.4752 2.142.3982 3.871.5791 4.899.7737 12.824 1.8638 18.087.8486 24.206 4.9688 1.147.729 3.749 2.5673 5.851 5.8323 5.929 9.233 3.124 20.076 2.347 23.3-2.592 9.647-8.666 14.513-10.658 16.827-3.994 4.715-9.18 0-9.18 0s-1.33-1.172-3.283-3.047zM449.883 366.085c.699-.172 1.406.254 1.579.953.172.699-.254 1.406-.953 1.578-4.387 1.085-7.824 1.819-15.495 3.371-7.635 1.544-11.047 2.273-15.386 3.345-.699.173-1.406-.253-1.579-.952-.172-.699.254-1.406.953-1.579 4.388-1.084 7.824-1.818 15.495-3.37 7.635-1.544 11.047-2.273 15.386-3.346zm10.026 12.963c.708-.129 1.387.34 1.516 1.048.13.709-.34 1.388-1.048 1.517-4.85.885-8.593 1.656-16.917 3.438-8.349 1.788-12.11 2.562-16.994 3.454-.708.129-1.387-.34-1.517-1.048-.129-.709.34-1.388 1.049-1.517 4.849-.885 8.593-1.656 16.916-3.438 8.349-1.788 12.111-2.562 16.995-3.454zM509.722 127.962c.001 1.494.076 4.055-.734 5.143-1.258 1.624-3.847-2.696-3.062-5.634.468-1.147 1.072-1.569 1.772-1.534 1.057.01 1.949.957 2.024 2.025zm18.689.983c.085 1.509.161 4.07-.735 5.143-1.258 1.624-3.847-2.696-3.062-5.634.468-1.148 1.073-1.569 1.772-1.534 1.058.01 1.949.957 2.025 2.025zM517.395 129.703l-1.595 8.506c-.005.029.101.18.142.187.468.082.952.136 1.712.195.148.011.302.023.524.039.28.02.434.032.581.042.503.038.919.071 1.363.11.478.041.832.463.79.941-.042.478-.464.832-.942.79-.435-.038-.844-.071-1.34-.107-.145-.011-.298-.022-.578-.042-.225-.017-.382-.029-.533-.04-.81-.063-1.343-.122-1.878-.216-.986-.173-1.726-1.225-1.551-2.21l1.596-8.515c.089-.472.543-.782 1.015-.694.471.089.782.543.694 1.014z" fill="#482D1F"/>
      <path d="M544.036 129.12c.072.99.023 2.005-.158 3.028-1.184 6.686-7.585 11.148-14.295 9.97-5.644-.991-9.713-5.656-10.16-11.092l-2.844-.203c-1.203 6.664-7.592 11.106-14.289 9.93-6.712-1.178-11.196-7.553-10.011-14.241 1.184-6.685 7.585-11.148 14.295-9.97 5.847 1.027 10.003 5.997 10.195 11.681l2.719.194c.024-.18.051-.36.083-.54 1.184-6.686 7.585-11.148 14.296-9.97 4.775.838 8.422 4.306 9.703 8.646l5.827-.832c.713-.102 1.373.393 1.475 1.106.102.712-.393 1.373-1.106 1.475l-5.73.818zm-29.878-.04c.221-4.789-3.161-9.114-8.034-9.97-5.296-.929-10.345 2.59-11.278 7.857-.932 5.266 2.601 10.289 7.895 11.218 5.296.93 10.345-2.589 11.278-7.856.043-.244.076-.487.101-.729-.011-.085-.014-.171-.008-.259.007-.09.022-.177.046-.261zm27.153 2.613c.933-5.265-2.601-10.289-7.895-11.218-5.296-.93-10.345 2.589-11.277 7.857-.933 5.265 2.6 10.288 7.894 11.218 5.297.93 10.345-2.59 11.278-7.857zM520.746 145.657c.645-.151 2.221-.577 2.457-1.414.03-.17.161-.411.005-.526-.352-.501-1.455-.256-3.071-.1-2.86.201-5.115-.019-5.115-.019s.614 1.513 1.068 1.944c.861 1.118 3.725.391 4.656.115zM575.938 285.974c-.183-7.652-.326-14.347-.427-20.082-.101-5.737-.244-15.159-.427-28.266-.01-.72-.602-1.296-1.322-1.286-.72.01-1.295.602-1.285 1.322.183 13.11.326 22.535.427 28.276.101 5.741.244 12.441.427 20.099.018.72.615 1.289 1.335 1.272.72-.017 1.289-.615 1.272-1.335z" fill="#482D1F"/>
    </g>
    <path d="M37.5284 408h18.6222v-5.071H43.679v-24.02h-6.1506V408zm32.4396.426c6.6194 0 10.7387-4.531 10.7387-11.25 0-6.761-4.1193-11.278-10.7387-11.278-6.6193 0-10.7386 4.517-10.7386 11.278 0 6.719 4.1193 11.25 10.7386 11.25zm.0284-4.687c-3.0539 0-4.6164-2.799-4.6164-6.605 0-3.807 1.5625-6.62 4.6164-6.62 2.9972 0 4.5597 2.813 4.5597 6.62 0 3.806-1.5625 6.605-4.5597 6.605zm24.4745 12.755c6.2361 0 10.6671-2.841 10.6671-8.281v-22.031H99.13v3.665h-.2273c-.8097-1.776-2.5852-3.949-6.2358-3.949-4.7869 0-8.8352 3.721-8.8352 11.15 0 7.259 3.9346 10.64 8.8494 10.64 3.4801 0 5.4261-1.748 6.2216-3.552h.2557v3.992c0 2.855-1.9176 4.02-4.5455 4.02-2.6704 0-4.0199-1.165-4.517-2.344l-5.5966.753c.7244 3.295 4.0909 5.937 9.9716 5.937zm.1278-13.352c-2.9687 0-4.588-2.358-4.588-6.122 0-3.708 1.5909-6.307 4.588-6.307 2.9404 0 4.5881 2.486 4.5881 6.307 0 3.849-1.6761 6.122-4.5881 6.122zm25.2133 5.284c6.619 0 10.738-4.531 10.738-11.25 0-6.761-4.119-11.278-10.738-11.278-6.62 0-10.739 4.517-10.739 11.278 0 6.719 4.119 11.25 10.739 11.25zm.028-4.687c-3.054 0-4.616-2.799-4.616-6.605 0-3.807 1.562-6.62 4.616-6.62 2.997 0 4.56 2.813 4.56 6.62 0 3.806-1.563 6.605-4.56 6.605zm23.903 12.443h6.051v-11.676h.185c.838 1.818 2.67 3.849 6.193 3.849 4.971 0 8.849-3.935 8.849-11.236 0-7.5-4.048-11.221-8.835-11.221-3.65 0-5.398 2.173-6.207 3.949h-.27v-3.665h-5.966v30zm5.923-19.091c0-3.892 1.648-6.378 4.588-6.378 2.997 0 4.588 2.599 4.588 6.378 0 3.807-1.619 6.449-4.588 6.449-2.912 0-4.588-2.557-4.588-6.449zM169.055 408h6.052v-12.344c0-2.684 1.96-4.531 4.63-4.531.838 0 1.989.142 2.557.327v-5.37c-.54-.127-1.293-.213-1.903-.213-2.444 0-4.446 1.421-5.242 4.12h-.227v-3.807h-5.867V408zm25.295.426c5.398 0 9.034-2.628 9.887-6.676l-5.597-.369c-.611 1.662-2.173 2.528-4.19 2.528-3.026 0-4.944-2.003-4.944-5.256v-.014h14.858v-1.662c0-7.415-4.488-11.079-10.255-11.079-6.421 0-10.583 4.559-10.583 11.292 0 6.918 4.105 11.236 10.824 11.236zm-4.844-13.537c.128-2.486 2.017-4.474 4.702-4.474 2.628 0 4.446 1.875 4.46 4.474h-9.162zm38.797-8.707h-6.407l-4.517 15.611h-.227l-4.531-15.611h-6.392L213.857 408h6.818l7.628-21.818zM231.399 408h6.051v-21.818h-6.051V408zm3.04-24.631c1.804 0 3.281-1.378 3.281-3.068 0-1.676-1.477-3.054-3.281-3.054-1.79 0-3.267 1.378-3.267 3.054 0 1.69 1.477 3.068 3.267 3.068zm17.802 25.057c5.397 0 9.034-2.628 9.886-6.676l-5.596-.369c-.611 1.662-2.174 2.528-4.191 2.528-3.025 0-4.943-2.003-4.943-5.256v-.014h14.858v-1.662c0-7.415-4.489-11.079-10.256-11.079-6.42 0-10.582 4.559-10.582 11.292 0 6.918 4.105 11.236 10.824 11.236zm-4.844-13.537c.128-2.486 2.017-4.474 4.702-4.474 2.628 0 4.446 1.875 4.46 4.474h-9.162zM270.352 408h6.392l3.75-13.722h.269l3.75 13.722h6.407l5.923-21.818h-6.108l-3.324 14.574h-.184l-3.58-14.574h-6.009l-3.522 14.659h-.199l-3.381-14.659h-6.122L270.352 408z" fill="#656464"/>
    <path d="M46.4098 442.909h-3.9151v-4.574h-3.7163v4.574h-2.7965v2.983h2.7965v11.273c-.0124 3.468 2.635 5.146 5.5682 5.084 1.1807-.013 1.9762-.237 2.4112-.398l-.6712-3.07c-.2485.05-.7084.161-1.305.161-1.2056 0-2.2869-.397-2.2869-2.547v-10.503h3.9151v-2.983zm8.2373 7.756c0-3.045 1.9265-4.785 4.5739-4.785 2.5603 0 4.0891 1.628 4.0891 4.424V462h3.7163v-12.143c0-4.76-2.6101-7.196-6.5377-7.196-2.9705 0-4.7603 1.292-5.6552 3.355h-.2361v-9.471h-3.6666V462h3.7163v-11.335zm25.5664 11.72c4.1637 0 7.1094-2.05 7.9546-5.158l-3.5174-.634c-.6712 1.803-2.287 2.722-4.3999 2.722-3.1818 0-5.3196-2.063-5.419-5.742h13.5724v-1.317c0-6.898-4.1264-9.595-8.4517-9.595-5.3196 0-8.8246 4.051-8.8246 9.918 0 5.928 3.4553 9.806 9.0856 9.806zm-5.3693-11.596c.1491-2.709 2.1129-5.059 5.1332-5.059 2.8835 0 4.7727 2.138 4.7851 5.059h-9.9183zm26.9458 18.37h3.716v-10.13h.224c.671 1.219 2.039 3.344 5.519 3.344 4.623 0 7.979-3.704 7.979-9.881 0-6.19-3.405-9.831-8.017-9.831-3.542 0-4.822 2.162-5.481 3.343h-.311v-3.095h-3.629v26.25zm3.642-16.704c0-3.99 1.74-6.638 4.984-6.638 3.368 0 5.059 2.847 5.059 6.638 0 3.828-1.741 6.748-5.059 6.748-3.194 0-4.984-2.734-4.984-6.748zm17.96 9.545h3.716v-11.658c0-2.499 1.927-4.301 4.561-4.301.771 0 1.641.137 1.939.224v-3.555c-.372-.049-1.106-.087-1.578-.087-2.237 0-4.151 1.268-4.847 3.319h-.199v-3.033h-3.592V462zm20.79.385c5.382 0 8.899-3.94 8.899-9.843 0-5.942-3.517-9.881-8.899-9.881-5.381 0-8.899 3.939-8.899 9.881 0 5.903 3.518 9.843 8.899 9.843zm.013-3.119c-3.518 0-5.158-3.07-5.158-6.737 0-3.654 1.64-6.761 5.158-6.761 3.492 0 5.133 3.107 5.133 6.761 0 3.667-1.641 6.737-5.133 6.737zm13.035-16.357v20.284c0 1.778-.734 2.747-2.499 2.747-.211 0-.372 0-.596-.012v3.206h.721c3.989.05 6.09-2.088 6.09-5.916v-20.309h-3.716zm1.839-2.946c1.28 0 2.349-.994 2.349-2.212 0-1.218-1.069-2.225-2.349-2.225-1.292 0-2.349 1.007-2.349 2.225 0 1.218 1.057 2.212 2.349 2.212zm15.104 22.422c4.164 0 7.11-2.05 7.955-5.158l-3.517-.634c-.672 1.803-2.287 2.722-4.4 2.722-3.182 0-5.32-2.063-5.419-5.742h13.572v-1.317c0-6.898-4.126-9.595-8.452-9.595-5.319 0-8.824 4.051-8.824 9.918 0 5.928 3.455 9.806 9.085 9.806zm-5.369-11.596c.149-2.709 2.113-5.059 5.133-5.059 2.884 0 4.773 2.138 4.785 5.059h-9.918zm25.725 11.596c4.512 0 7.433-2.709 7.843-6.425h-3.617c-.472 2.063-2.076 3.281-4.201 3.281-3.145 0-5.171-2.623-5.171-6.786 0-4.09 2.064-6.662 5.171-6.662 2.361 0 3.803 1.491 4.201 3.281h3.617c-.398-3.853-3.543-6.413-7.88-6.413-5.382 0-8.862 4.051-8.862 9.881 0 5.754 3.356 9.843 8.899 9.843zm20.728-19.476h-3.915v-4.574h-3.716v4.574h-2.796v2.983h2.796v11.273c-.012 3.468 2.635 5.146 5.568 5.084 1.181-.013 1.976-.237 2.411-.398l-.671-3.07c-.248.05-.708.161-1.305.161-1.205 0-2.287-.397-2.287-2.547v-10.503h3.915v-2.983zM228.631 462h3.716v-19.091h-3.716V462zm1.877-22.037c1.28 0 2.349-.994 2.349-2.212 0-1.218-1.069-2.225-2.349-2.225-1.293 0-2.349 1.007-2.349 2.225 0 1.218 1.056 2.212 2.349 2.212zm21.145 7.607c-.771-2.971-3.095-4.909-7.222-4.909-4.312 0-7.37 2.274-7.37 5.655 0 2.709 1.641 4.511 5.22 5.307l3.232.708c1.839.41 2.697 1.231 2.697 2.424 0 1.479-1.579 2.635-4.015 2.635-2.225 0-3.654-.957-4.101-2.834l-3.592.547c.621 3.381 3.43 5.282 7.718 5.282 4.611 0 7.805-2.448 7.805-5.903 0-2.698-1.715-4.363-5.22-5.171l-3.032-.696c-2.101-.497-3.008-1.206-2.996-2.498-.012-1.467 1.579-2.511 3.692-2.511 2.311 0 3.38 1.28 3.815 2.561l3.369-.597zm21.763 14.815c4.511 0 7.432-2.709 7.842-6.425h-3.616c-.473 2.063-2.076 3.281-4.201 3.281-3.145 0-5.171-2.623-5.171-6.786 0-4.09 2.063-6.662 5.171-6.662 2.361 0 3.803 1.491 4.201 3.281h3.616c-.397-3.853-3.542-6.413-7.88-6.413-5.381 0-8.861 4.051-8.861 9.881 0 5.754 3.355 9.843 8.899 9.843zm23.91-8.302c.012 3.244-2.399 4.785-4.487 4.785-2.299 0-3.89-1.666-3.89-4.263v-11.696h-3.716v12.143c0 4.736 2.597 7.197 6.264 7.197 2.871 0 4.822-1.517 5.705-3.555h.199V462h3.654v-19.091h-3.729v11.174zm8.722 7.917h3.716v-11.658c0-2.499 1.927-4.301 4.562-4.301.77 0 1.64.137 1.939.224v-3.555c-.373-.049-1.107-.087-1.579-.087-2.237 0-4.151 1.268-4.847 3.319h-.199v-3.033h-3.592V462zm13.433 0h3.716v-11.658c0-2.499 1.926-4.301 4.561-4.301.771 0 1.641.137 1.939.224v-3.555c-.373-.049-1.106-.087-1.578-.087-2.237 0-4.151 1.268-4.848 3.319h-.198v-3.033h-3.592V462zm20.977.385c4.163 0 7.109-2.05 7.954-5.158l-3.517-.634c-.671 1.803-2.287 2.722-4.4 2.722-3.182 0-5.32-2.063-5.419-5.742h13.572v-1.317c0-6.898-4.126-9.595-8.451-9.595-5.32 0-8.825 4.051-8.825 9.918 0 5.928 3.455 9.806 9.086 9.806zm-5.37-11.596c.149-2.709 2.113-5.059 5.134-5.059 2.883 0 4.772 2.138 4.785 5.059h-9.919zm21.4-.124c0-3.045 1.864-4.785 4.45-4.785 2.523 0 4.051 1.653 4.051 4.424V462h3.717v-12.143c0-4.723-2.598-7.196-6.501-7.196-2.871 0-4.748 1.329-5.63 3.355h-.236v-3.107h-3.567V462h3.716v-11.335zm26.113-7.756h-3.915v-4.574h-3.716v4.574h-2.797v2.983h2.797v11.273c-.013 3.468 2.635 5.146 5.568 5.084 1.181-.013 1.976-.237 2.411-.398l-.671-3.07c-.249.05-.708.161-1.305.161-1.206 0-2.287-.397-2.287-2.547v-10.503h3.915v-2.983zm8.238-6.364h-3.717V462h3.717v-25.455zm7.348 32.564c3.07 0 5.021-1.603 6.115-4.561l7.893-21.602-4.015-.037-4.835 14.815h-.199l-4.835-14.815h-3.977l6.985 19.34-.46 1.267c-.944 2.474-2.274 2.697-4.312 2.138l-.895 3.045c.447.212 1.417.41 2.535.41zM37.7965 504h3.6293v-2.971h.3107c.6712 1.219 2.0384 3.344 5.5185 3.344 4.6236 0 7.9794-3.704 7.9794-9.881 0-6.19-3.4056-9.831-8.0167-9.831-3.5423 0-4.8225 2.162-5.4812 3.343h-.2237v-9.459h-3.7163V504zm3.6417-9.545c0-3.99 1.7401-6.638 4.984-6.638 3.3683 0 5.0586 2.847 5.0586 6.638 0 3.828-1.74 6.748-5.0586 6.748-3.1942 0-4.984-2.734-4.984-6.748zm26.1972 9.93c4.1637 0 7.1094-2.05 7.9545-5.158l-3.5174-.634c-.6711 1.803-2.2869 2.722-4.3998 2.722-3.1818 0-5.3196-2.063-5.4191-5.742h13.5725v-1.317c0-6.898-4.1264-9.595-8.4517-9.595-5.3196 0-8.8246 4.051-8.8246 9.918 0 5.928 3.4553 9.806 9.0856 9.806zm-5.3693-11.596c.1491-2.709 2.1129-5.059 5.1331-5.059 2.8836 0 4.7728 2.138 4.7852 5.059h-9.9183zM79.9494 504h3.7163v-19.091h-3.7163V504zm1.8768-22.037c1.2802 0 2.349-.994 2.349-2.212 0-1.218-1.0688-2.225-2.349-2.225-1.2926 0-2.3491 1.007-2.3491 2.225 0 1.218 1.0565 2.212 2.3491 2.212zm10.5553 10.702c0-3.045 1.8643-4.785 4.4496-4.785 2.523 0 4.0519 1.653 4.0519 4.424V504h3.716v-12.143c0-4.723-2.597-7.196-6.5002-7.196-2.8711 0-4.7479 1.329-5.6303 3.355h-.2362v-3.107h-3.5671V504h3.7163v-11.335zm25.2055 18.855c4.86 0 8.614-2.225 8.614-7.097v-19.514h-3.642v3.095h-.273c-.659-1.181-1.977-3.343-5.531-3.343-4.611 0-8.005 3.641-8.005 9.719 0 6.09 3.468 9.334 7.98 9.334 3.505 0 4.86-1.976 5.531-3.194h.236v3.753c0 2.946-2.051 4.251-4.872 4.251-3.095 0-4.301-1.553-4.959-2.61l-3.195 1.318c1.007 2.299 3.555 4.288 8.116 4.288zm-.037-10.888c-3.318 0-5.046-2.548-5.046-6.302 0-3.666 1.69-6.513 5.046-6.513 3.244 0 4.984 2.648 4.984 6.513 0 3.94-1.777 6.302-4.984 6.302zm30.044 3.741c3.48 0 4.847-2.125 5.519-3.344h.31V504h3.63v-25.455h-3.717v9.459h-.223c-.672-1.181-1.939-3.343-5.494-3.343-4.611 0-8.004 3.641-8.004 9.831 0 6.177 3.343 9.881 7.979 9.881zm.82-3.17c-3.318 0-5.046-2.92-5.046-6.748 0-3.791 1.691-6.638 5.046-6.638 3.244 0 4.984 2.648 4.984 6.638 0 4.014-1.777 6.748-4.984 6.748zm22.171 3.182c4.163 0 7.109-2.05 7.954-5.158l-3.517-.634c-.671 1.803-2.287 2.722-4.4 2.722-3.182 0-5.32-2.063-5.419-5.742h13.572v-1.317c0-6.898-4.126-9.595-8.451-9.595-5.32 0-8.825 4.051-8.825 9.918 0 5.928 3.455 9.806 9.086 9.806zm-5.37-11.596c.149-2.709 2.113-5.059 5.133-5.059 2.884 0 4.773 2.138 4.786 5.059h-9.919zm33.913-7.88h-3.99l-4.822 14.691h-.199l-4.835-14.691h-3.99L188.228 504h3.977l6.923-19.091zm11.037 19.476c4.163 0 7.109-2.05 7.954-5.158l-3.517-.634c-.671 1.803-2.287 2.722-4.4 2.722-3.182 0-5.32-2.063-5.419-5.742h13.572v-1.317c0-6.898-4.126-9.595-8.451-9.595-5.32 0-8.825 4.051-8.825 9.918 0 5.928 3.455 9.806 9.086 9.806zm-5.37-11.596c.15-2.709 2.113-5.059 5.134-5.059 2.883 0 4.772 2.138 4.785 5.059h-9.919zm21.4-14.244h-3.716V504h3.716v-25.455zm13.041 25.84c5.382 0 8.899-3.94 8.899-9.843 0-5.942-3.517-9.881-8.899-9.881s-8.899 3.939-8.899 9.881c0 5.903 3.517 9.843 8.899 9.843zm.012-3.119c-3.517 0-5.158-3.07-5.158-6.737 0-3.654 1.641-6.761 5.158-6.761 3.493 0 5.134 3.107 5.134 6.761 0 3.667-1.641 6.737-5.134 6.737zm13.035 9.893H256v-10.13h.223c.672 1.219 2.039 3.344 5.519 3.344 4.623 0 7.979-3.704 7.979-9.881 0-6.19-3.405-9.831-8.016-9.831-3.543 0-4.823 2.162-5.482 3.343h-.31v-3.095h-3.63v26.25zm3.642-16.704c0-3.99 1.74-6.638 4.984-6.638 3.368 0 5.059 2.847 5.059 6.638 0 3.828-1.74 6.748-5.059 6.748-3.194 0-4.984-2.734-4.984-6.748zm26.188 9.93c4.164 0 7.109-2.05 7.954-5.158l-3.517-.634c-.671 1.803-2.287 2.722-4.4 2.722-3.182 0-5.319-2.063-5.419-5.742h13.573v-1.317c0-6.898-4.127-9.595-8.452-9.595-5.32 0-8.825 4.051-8.825 9.918 0 5.928 3.456 9.806 9.086 9.806zm-5.369-11.596c.149-2.709 2.113-5.059 5.133-5.059 2.883 0 4.773 2.138 4.785 5.059h-9.918zm24.83 11.584c3.48 0 4.847-2.125 5.518-3.344h.311V504h3.629v-25.455h-3.716v9.459h-.224c-.671-1.181-1.939-3.343-5.494-3.343-4.611 0-8.004 3.641-8.004 9.831 0 6.177 3.344 9.881 7.98 9.881zm.82-3.17c-3.319 0-5.046-2.92-5.046-6.748 0-3.791 1.69-6.638 5.046-6.638 3.244 0 4.984 2.648 4.984 6.638 0 4.014-1.777 6.748-4.984 6.748z" fill="#656464" fill-opacity=".55"/>
    <path d="M294.505 134h-175.01c-4.139 0-7.495 3.361-7.495 7.506v130.988c0 4.145 3.356 7.506 7.495 7.506h175.01c4.139 0 7.495-3.361 7.495-7.506V141.506c0-4.145-3.356-7.506-7.495-7.506z" fill="#F2F6FB"/>
    <path d="M209.144 169.402l30.123 9.475 31.813 18.035 2.113-3.763-32.208-18.259-32.376-10.183-32.647 19.278-32.57 11.271 1.4 4.085 32.977-11.412 31.375-18.527z" fill="#D8DEED"/>
    <path d="M142.823 203.003c-2.949 0-5.34-2.393-5.34-5.345 0-2.951 2.391-5.344 5.34-5.344s5.34 2.393 5.34 5.344c0 2.952-2.391 5.345-5.34 5.345zm32.039-12.216c-2.949 0-5.34-2.393-5.34-5.345 0-2.951 2.391-5.344 5.34-5.344s5.34 2.393 5.34 5.344c0 2.952-2.391 5.345-5.34 5.345zm32.039-18.324c-2.949 0-5.34-2.393-5.34-5.345 0-2.951 2.391-5.344 5.34-5.344s5.34 2.393 5.34 5.344c0 2.952-2.391 5.345-5.34 5.345zm32.039 9.162c-2.949 0-5.34-2.393-5.34-5.345 0-2.951 2.391-5.344 5.34-5.344s5.34 2.393 5.34 5.344c0 2.952-2.391 5.345-5.34 5.345zm32.039 19.851c-2.949 0-5.34-2.393-5.34-5.345 0-2.951 2.391-5.344 5.34-5.344s5.34 2.393 5.34 5.344c0 2.952-2.391 5.345-5.34 5.345z" fill="#FFCB3D"/>
    <path d="M221.916 224.322v26.087c0 .796-.645 1.442-1.441 1.442h-1.692c-.795 0-1.441-.646-1.441-1.442v-26.087c0-.796.645-1.441 1.441-1.441h1.692c.796 0 1.441.645 1.441 1.441zm-9.149 4.577v21.508c0 .798-.645 1.444-1.441 1.444h-1.692c-.796 0-1.441-.647-1.441-1.444v-21.508c0-.798.645-1.444 1.441-1.444h1.692c.796 0 1.441.647 1.441 1.444zm-9.149-13.725v35.235c0 .796-.645 1.442-1.441 1.442h-1.692c-.796 0-1.441-.646-1.441-1.442v-35.235c0-.796.645-1.442 1.441-1.442h1.692c.795 0 1.441.646 1.441 1.442zm-9.149 9.148v26.087c0 .796-.645 1.442-1.441 1.442h-1.692c-.796 0-1.442-.646-1.442-1.442v-26.087c0-.796.646-1.441 1.442-1.441h1.692c.795 0 1.441.645 1.441 1.441zm-9.149-13.719v39.803c0 .8-.645 1.445-1.441 1.445h-1.693c-.795 0-1.441-.647-1.441-1.445v-39.803c0-.8.646-1.445 1.441-1.445h1.693c.795 0 1.441.647 1.441 1.445zm-9.149 4.571v35.235c0 .796-.646 1.442-1.441 1.442h-1.693c-.795 0-1.441-.646-1.441-1.442v-35.235c0-.796.645-1.442 1.441-1.442h1.693c.795 0 1.441.646 1.441 1.442zm-9.149-7.621v42.853c0 .798-.646 1.445-1.442 1.445h-1.692c-.795 0-1.441-.647-1.441-1.445v-42.853c0-.798.645-1.444 1.441-1.444h1.692c.796 0 1.442.646 1.442 1.444zm-9.15-3.053v45.91c0 .797-.645 1.441-1.441 1.441h-1.692c-.795 0-1.441-.645-1.441-1.441V204.5c0-.797.645-1.441 1.441-1.441h1.692c.796 0 1.441.645 1.441 1.441zm-9.149 10.674v35.235c0 .796-.645 1.442-1.441 1.442h-1.692c-.796 0-1.441-.646-1.441-1.442v-35.235c0-.796.645-1.442 1.441-1.442h1.692c.796 0 1.441.646 1.441 1.442zm128.088 9.148v26.087c0 .796-.645 1.442-1.441 1.442h-1.692c-.795 0-1.441-.646-1.441-1.442v-26.087c0-.796.645-1.441 1.441-1.441h1.692c.796 0 1.441.645 1.441 1.441zm-9.149-13.719v39.803c0 .8-.645 1.445-1.441 1.445h-1.692c-.796 0-1.441-.647-1.441-1.445v-39.803c0-.8.645-1.445 1.441-1.445h1.692c.796 0 1.441.647 1.441 1.445zm-9.149 4.571v35.235c0 .796-.645 1.442-1.441 1.442h-1.692c-.796 0-1.441-.646-1.441-1.442v-35.235c0-.796.645-1.442 1.441-1.442h1.692c.795 0 1.441.646 1.441 1.442zm-9.149-7.621v42.853c0 .798-.645 1.445-1.441 1.445h-1.692c-.796 0-1.442-.647-1.442-1.445v-42.853c0-.798.646-1.444 1.442-1.444h1.692c.795 0 1.441.646 1.441 1.444zm-9.149-3.053v45.91c0 .797-.645 1.441-1.441 1.441h-1.693c-.795 0-1.441-.645-1.441-1.441V204.5c0-.797.645-1.441 1.441-1.441h1.693c.795 0 1.441.645 1.441 1.441zm-9.149 10.674v35.235c0 .796-.646 1.442-1.442 1.442h-1.692c-.795 0-1.441-.646-1.441-1.442v-35.235c0-.796.645-1.442 1.441-1.442h1.692c.796 0 1.442.646 1.442 1.442z" fill="#D8DEED"/>
    <path d="M224.751 186H39.2485C38.0067 186 37 187.008 37 188.252v141.496c0 1.244 1.0067 2.252 2.2485 2.252H224.751c1.242 0 2.249-1.008 2.249-2.252V188.252c0-1.244-1.007-2.252-2.249-2.252z" fill="#E1E5F0"/>
    <path d="M186.084 264.442h11.378c1.671 0 2.276.174 2.887.501.611.328 1.09.808 1.417 1.419.326.612.5 1.219.5 2.892V332H181.28v-62.746c0-1.673.174-2.28.501-2.892.326-.611.806-1.091 1.416-1.419.611-.327 1.217-.501 2.887-.501zM162.1 280.581h11.753c1.67 0 2.276.174 2.887.501.61.327 1.09.807 1.416 1.419.327.612.501 1.218.501 2.891V332h-21.361v-46.608c0-1.673.174-2.279.5-2.891.327-.612.806-1.092 1.417-1.419.611-.327 1.217-.501 2.887-.501z" fill="#F2F6FB"/>
    <path d="M138.491 230.288h11.377c1.671 0 2.277.174 2.887.501.611.327 1.09.807 1.417 1.419.327.612.501 1.218.501 2.891V332h-20.987v-96.901c0-1.673.174-2.279.501-2.891.327-.612.806-1.092 1.417-1.419.61-.327 1.216-.501 2.887-.501z" fill="#D8DEED"/>
    <path d="M114.506 243.424h11.378c1.671 0 2.276.174 2.887.501.611.328 1.09.808 1.417 1.419.326.612.5 1.219.5 2.892V332h-20.986v-83.764c0-1.673.174-2.28.501-2.892.326-.611.806-1.091 1.416-1.419.611-.327 1.217-.501 2.887-.501zM90.8969 274.201h11.3781c1.67 0 2.276.174 2.887.501.611.327 1.09.807 1.416 1.419.327.611.501 1.218.501 2.891V332H86.0928v-52.988c0-1.673.1739-2.28.5005-2.891.3266-.612.8059-1.092 1.4166-1.419.6107-.327 1.2165-.501 2.887-.501zM66.9126 258.812h11.378c1.6705 0 2.2763.175 2.887.502s1.09.807 1.4166 1.418c.3266.612.5005 1.219.5005 2.892V332H62.1085v-68.376c0-1.673.174-2.28.5006-2.892.3266-.611.8059-1.091 1.4166-1.418.6107-.327 1.2164-.502 2.8869-.502z" fill="#F2F6FB"/>
    <g clip-path="url(#clip2)">
      <path d="M279.227 306.574c-4.333 3.399-9.793 5.426-15.727 5.426-14.083 0-25.5-11.417-25.5-25.5s11.417-25.5 25.5-25.5 25.5 11.417 25.5 25.5c0 5.475-1.726 10.548-4.663 14.702l22.474 23.297c.381.395.382 1.032-.006 1.433l-3.766 3.888c-.384.397-1.002.4-1.384.004l-22.428-23.25zm-15.727-1.439c10.275 0 18.635-8.36 18.635-18.635 0-10.275-8.36-18.635-18.635-18.635-10.275 0-18.635 8.36-18.635 18.635 0 10.275 8.36 18.635 18.635 18.635z" fill="#D8DEED"/>
    </g>
  </g>
  <defs>
    <clipPath id="clip0">
      <path fill="#fff" d="M0 0h800v564.704H0z"/>
    </clipPath>
    <clipPath id="clip1">
      <path d="M84 44h883v823H84V44z" fill="#fff"/>
    </clipPath>
    <clipPath id="clip2">
      <path d="M238 246h69v84h-69v-84z" fill="#fff"/>
    </clipPath>
  </defs>
</svg>
