<svg width="800" height="565" viewBox="0 0 800 565" fill="none" xmlns="http://www.w3.org/2000/svg">
<g clip-path="url(#clip0)">
<path d="M173.096 617.278C175.278 617.214 176.994 615.396 176.93 613.217C176.865 611.039 175.045 609.325 172.863 609.39L99.1927 611.56C97.011 611.625 95.2946 613.443 95.3589 615.621C95.4233 617.799 97.2442 619.513 99.4259 619.449L173.096 617.278ZM278.436 552.113C279.848 550.452 279.644 547.962 277.98 546.552C276.316 545.141 273.822 545.345 272.41 547.007L227.463 599.882C226.051 601.543 226.255 604.033 227.919 605.443C229.583 606.853 232.077 606.65 233.489 604.988L278.436 552.113ZM325.247 438.467L350.447 497.045C307.744 516.394 278.044 559.339 278.044 609.21C278.044 677.202 333.249 732.321 401.349 732.321C469.448 732.321 524.653 677.202 524.653 609.21C524.653 541.217 469.448 486.098 401.349 486.098C385.998 486.098 371.302 488.899 357.746 494.017L313.134 390.313C312.273 388.311 309.948 387.385 307.943 388.245C305.937 389.105 305.01 391.425 305.871 393.428L320.852 428.251H39.867L68.1455 371.005C69.5115 371.13 70.8976 371.194 72.2996 371.194C74.4822 371.194 76.2516 369.427 76.2516 367.248C76.2516 365.069 74.4822 363.302 72.2996 363.302C72.1833 363.302 72.0673 363.302 71.9514 363.301L81.614 343.74C82.5794 341.785 81.7752 339.419 79.8177 338.455C77.8602 337.492 75.4906 338.294 74.5251 340.249L63.6379 362.289C51.0123 359.257 41.8687 349.793 41.8687 338.917C41.8687 325.727 55.4501 314.531 72.2996 314.531H145.729C147.912 314.531 149.681 312.764 149.681 310.585C149.681 308.406 147.912 306.639 145.729 306.639H72.2996C51.3834 306.639 33.9645 320.999 33.9645 338.917C33.9645 353.231 44.9963 365.221 60.0723 369.507L-2.94684 497.081C-18.4851 490.027 -35.7477 486.098 -53.9295 486.098C-122.029 486.098 -177.234 541.217 -177.234 609.21C-177.234 677.202 -122.029 732.321 -53.9295 732.321C14.1697 732.321 69.375 677.202 69.375 609.21C69.375 562.179 42.9623 521.308 4.13934 500.577L34.8596 438.388L179.598 598.986C181.186 600.748 183.961 600.724 185.518 598.935L325.247 438.467ZM-6.4458 504.164L-57.4739 607.464C-58.4394 609.419 -57.6351 611.785 -55.6776 612.749C-53.7201 613.713 -51.3505 612.91 -50.3851 610.955L0.640381 507.661C36.8525 527.1 61.4709 565.284 61.4709 609.21C61.4709 672.844 9.80438 724.43 -53.9295 724.43C-117.663 724.43 -169.33 672.844 -169.33 609.21C-169.33 545.576 -117.663 493.99 -53.9295 493.99C-37.0032 493.99 -20.9281 497.628 -6.4458 504.164ZM316.796 436.143L182.485 590.391L43.4696 436.143H316.796ZM353.568 504.299L397.717 606.927C398.579 608.929 400.903 609.855 402.908 608.995C404.914 608.135 405.841 605.815 404.98 603.812L360.87 501.277C373.466 496.566 387.106 493.99 401.349 493.99C465.083 493.99 516.749 545.576 516.749 609.21C516.749 672.844 465.083 724.43 401.349 724.43C337.615 724.43 285.948 672.844 285.948 609.21C285.948 562.591 313.678 522.439 353.568 504.299Z" fill="#E1E5F0"/>
<path d="M186.356 636.515C208.619 636.515 226.667 618.496 226.667 596.267C226.667 574.039 208.619 556.019 186.356 556.019C164.093 556.019 146.045 574.039 146.045 596.267C146.045 618.496 164.093 636.515 186.356 636.515ZM-53.5342 633.201C-40.22 633.201 -29.4266 622.601 -29.4266 609.525C-29.4266 596.45 -40.22 585.85 -53.5342 585.85C-66.8485 585.85 -77.6418 596.45 -77.6418 609.525C-77.6418 622.601 -66.8485 633.201 -53.5342 633.201ZM401.349 633.674C414.881 633.674 425.852 622.721 425.852 609.21C425.852 595.698 414.881 584.745 401.349 584.745C387.816 584.745 376.846 595.698 376.846 609.21C376.846 622.721 387.816 633.674 401.349 633.674ZM326.655 383.821H259.47C250.084 383.821 242.476 391.417 242.476 400.788C242.476 410.159 250.084 417.755 259.47 417.755H326.655C336.04 417.755 343.649 410.159 343.649 400.788C343.649 391.417 336.04 383.821 326.655 383.821Z" fill="#D8DEED"/>
<path d="M148.526 610.006C147.688 607.738 147.048 605.374 146.628 602.935L79.5537 604.591C77.7341 604.607 76.2571 606.135 76.2699 608.03L76.2533 608.503C76.3478 610.323 77.8808 611.719 79.7004 611.703L148.526 610.006ZM224.893 603.744L289.075 529.403C290.26 528.062 290.181 525.931 288.759 524.747L288.442 524.431C287.573 523.721 286.466 523.484 285.36 523.8C284.727 523.879 284.253 524.274 283.779 524.747L220.607 597.513L178.259 606.9C176.441 607.295 175.413 609.031 175.65 610.767L175.729 611.241C176.204 612.977 177.943 614.082 179.681 613.766L224.893 603.744Z" fill="#FFCB3D"/>
<path d="M146.595 602.935C146.233 600.766 146.045 598.539 146.045 596.267C146.045 586.896 149.253 578.273 154.632 571.432L154.591 571.279L146.8 562.501L142.391 557.702L133.703 564.611C130.503 567.895 126.999 570.853 123.269 573.486C114.111 579.8 109.287 579.79 95.3615 586.727C91.5798 588.569 87.9479 590.654 84.3895 592.899C82.6727 594.497 79.6341 597.708 78.709 601.545C78.5289 602.17 78.5859 602.804 78.4875 603.353C78.4954 603.833 78.5499 604.293 78.6397 604.731C78.9298 604.643 79.2364 604.594 79.5534 604.591L146.595 602.935ZM285.067 523.861L255.442 500.681L200.993 536.069C206.02 553.406 207.69 565.349 206.002 571.897C205.651 573.259 205.268 574.528 204.854 575.773C200.999 578.305 196.577 580.937 190.036 586.023C186.637 588.548 183.554 591.311 180.472 594.231C179.049 596.125 176.757 599.913 176.599 603.78C176.599 604.411 176.678 605.042 176.757 605.595C176.883 606.193 177.078 606.747 177.319 607.257C177.602 607.097 177.916 606.975 178.258 606.9L220.606 597.513L283.779 524.747C284.177 524.349 284.575 524.007 285.067 523.861Z" fill="#474961"/>
<path d="M208.757 544.637C209.078 544.472 209.398 544.301 209.717 544.127L219.597 538.934L238.938 527.196L264.311 513.15C269.131 510.436 270.879 504.531 268.155 500.045L250.198 469.995L217.437 408.3C239.134 408.3 258.595 408.3 275.819 408.3C308.96 408.3 323.719 407.699 332.651 383.945C337.156 371.95 333.999 354.578 332.651 349.314C327.388 328.777 322.787 315.714 318.846 310.127C313.144 311.377 280.061 313.325 219.597 315.97C128.902 319.937 125.197 319.777 116.847 322.832C114.184 323.806 110.799 325.471 110.252 326.184C90.3123 337.483 86.3835 355.194 98.4649 379.319C103.662 393.177 112.48 408.824 117.6 417.442C117.944 421.034 118.24 424.594 118.492 428.172H124.213C125.776 430.69 127.391 433.327 129.054 436.064H118.993C119.228 439.565 119.515 443.276 119.796 447.363C121.849 474.63 123.312 485.942 126.489 521.279C126.706 523.884 126.917 526.421 127.122 528.884L159.102 564.369L161.834 564.32C168.628 559.114 177.13 556.019 186.356 556.019C193.65 556.019 200.491 557.953 206.394 561.336C208.23 559.658 209.356 557.211 209.23 554.53L208.757 544.637ZM128.193 541.871C128.647 547.378 129.057 552.348 129.427 556.691C129.742 561.274 133.712 564.816 138.298 564.738L142.964 564.662L148.64 564.559L128.193 541.871Z" fill="#A339FF"/>
<path opacity="0.176986" d="M161.873 564.329C168.667 559.123 177.169 556.028 186.395 556.028C193.689 556.028 200.53 557.962 206.432 561.345C208.269 559.668 209.395 557.221 209.268 554.539L208.78 544.306C204.549 546.479 200.163 547.659 197.695 543.805C192.333 535.426 188.006 531.302 179.687 518.7C162.187 492.089 143.92 460.225 129.26 436.074H119.032C119.267 439.575 119.554 443.285 119.835 447.372C121.888 474.639 123.351 485.951 126.527 521.288C126.745 523.893 126.956 526.43 127.16 528.894L159.141 564.378L161.873 564.329ZM124.424 428.182C123.336 426.427 122.274 424.73 121.239 423.096C120.633 422.125 119.33 420.022 117.608 417.124C117.965 420.827 118.271 424.495 118.531 428.182H124.424ZM128.232 541.881C128.685 547.388 129.096 552.357 129.466 556.7C129.781 561.283 133.751 564.825 138.337 564.747L143.003 564.671L148.679 564.568L128.232 541.881Z" fill="#444444"/>
<path d="M215.401 408.651L200.696 386.332C200.336 385.786 200.488 385.051 201.035 384.692C201.582 384.333 202.317 384.484 202.677 385.031L217.382 407.35C217.742 407.896 217.591 408.63 217.043 408.99C216.496 409.349 215.761 409.197 215.401 408.651Z" fill="#482D1F"/>
<path d="M189.797 270.847L197.997 306.326L199.718 313.797C199.828 314.418 200.002 314.16 200.189 314.768C200.391 315.453 294.776 319.419 295.528 317.764C295.514 317.687 295.592 317.673 295.578 317.595C295.871 316.983 296.151 316.292 296.43 315.602C299.348 308.037 300.242 299.465 298.265 290.998L291.819 263.239L321.935 258.487C325.532 257.791 327.891 254.072 327.19 250.571C327.038 249.896 326.783 249.27 326.443 248.705C320.927 234.001 317.171 225.707 315.178 223.824C304.928 214.14 298.854 197.703 295.501 191.333C294.301 189.031 293.186 187.019 292.147 185.257C295.918 184.784 298.378 183.249 299.527 180.653C305.763 166.563 304.616 158.741 280.72 155.812C264.916 153.874 249.972 157.58 235.887 166.928L214.484 171.547C214.257 171.589 214.174 171.924 214.217 172.514L209.861 173.537C195.011 176.889 183.923 187.628 179.557 200.902C172.191 216.334 170.287 238.594 173.844 267.682C174.155 270.221 176.428 272.054 178.979 271.824L189.797 270.847Z" fill="#FFCB3D"/>
<path opacity="0.176986" d="M189.583 270.866L188.889 267.861L188.673 267.097L178.707 224.297L178.382 222.912C176.761 216.099 176.941 209.286 178.622 202.965C172.035 218.293 170.443 239.866 173.844 267.682C174.155 270.221 176.428 272.054 178.979 271.824L189.583 270.866ZM291.793 185.298C295.764 184.878 298.343 183.329 299.527 180.653C305.763 166.563 304.616 158.741 280.72 155.812C264.801 153.86 249.755 157.634 235.581 167.132L241.859 165.778C242.014 165.742 242.169 165.706 242.342 165.747C248.043 164.596 259.39 163.117 271.524 167.868C273.325 168.589 276.045 169.748 279.021 171.659C281.259 173.047 284.75 173.401 291.793 185.298Z" fill="#444444"/>
<path d="M119.65 298.67C113.659 300.574 107.25 303.258 100.422 306.723C99.9186 306.978 99.5898 307.483 99.549 308.046C99.5137 308.917 100.183 309.66 101.055 309.706L135.659 311.535L205.66 315.521C252.099 317.935 281.859 319.337 294.941 319.729C298.513 320.346 310.578 320.773 322.915 314.632C324.466 313.86 327.444 311.583 330.087 308.7C331.849 306.779 333.008 302.733 333.565 296.563C334.214 288.469 329.255 276.757 320.337 258.73L259.012 268.045C258.691 268.107 258.395 268.131 258.121 268.12C240.761 270.919 212.768 273.935 191.587 278.089L189.855 270.817C189.824 270.828 189.793 270.84 189.762 270.851L189.758 270.837L178.156 271.844L176.548 275.769C158.972 282.353 145.481 287.589 136.077 291.477C120.806 297.792 120.189 298.325 119.65 298.67ZM188.791 149.321L193.736 180.322C193.841 180.865 194.179 181.362 194.69 181.504C196.949 182.352 200.091 183.189 203.811 183.271C210.538 183.493 215.835 181.339 218.758 179.807C219.348 179.532 219.693 178.822 219.573 178.202L217.229 164.565C221.613 165.29 221.355 165.182 221.78 165.237C226.909 165.528 231.069 164.56 231.815 164.255C234.563 163.48 237.059 160.584 238.928 156.121C241.471 150.161 243.054 141.332 242.845 131.162C242.884 129.707 242.69 128.298 242.496 126.888L240.107 112.961C239.581 109.848 238.217 106.977 236.185 104.397C235.323 103.278 234.506 102.391 233.564 101.689C223.289 92.75 208.849 97.1604 206.286 98.0598C205.991 98.1975 205.68 98.2577 205.385 98.3954C202.665 99.7272 199.995 100.487 197.294 101.091C196.053 101.332 195.255 102.612 195.496 103.852L199.435 123.669C198.646 123.339 197.046 120.977 195.496 120.876C194.35 120.777 188.639 120.152 185.539 122.844C182.377 125.629 180.603 131.715 180.609 133.402C180.555 137.674 183.339 142.759 185.539 145.789C186.434 147.006 187.547 148.169 188.791 149.321Z" fill="#F2A98A"/>
<path opacity="0.2" d="M176.541 275.786C158.943 282.377 145.413 287.586 136.001 291.477C118.523 298.705 120.241 298.358 119.302 298.825C118.362 299.292 114.031 300.617 123.083 297.901C129.117 296.09 134.655 295.185 139.697 295.185C153.719 289.723 165.294 285.625 174.424 282.89C183.555 280.154 189.275 278.55 191.585 278.078L191.582 278.066L191.585 278.066L189.855 270.817L178.156 271.843L176.541 275.786Z" fill="#8C2A00"/>
<path d="M251.002 244.678C250.787 244.29 250.787 244.29 250.572 243.903C244.179 232.381 240.011 225.025 238.309 222.354C237.957 221.802 237.224 221.64 236.672 221.991C236.119 222.342 235.957 223.073 236.308 223.625C237.972 226.235 242.14 233.591 248.498 245.05C248.713 245.437 248.713 245.437 248.928 245.825C250.951 249.473 260.164 266.166 261.224 268.048C261.38 268.327 261.643 268.53 261.951 268.612L276.582 272.515C277.214 272.684 277.864 272.309 278.033 271.677C278.202 271.046 277.827 270.397 277.194 270.228L263.048 266.454C261.253 263.234 252.919 248.135 251.002 244.678Z" fill="#482D1F"/>
<path d="M217.217 164.627L205.368 161.905L218.63 172.854L217.217 164.627Z" fill="#482D1F"/>
<path d="M196.267 144.644L196.005 144.83C193.886 144.973 192.46 144.955 191.727 144.776C190.628 144.507 187.408 143.684 185.037 140.607C182.667 137.53 181.544 133.004 183.411 128.944C185.215 124.976 189.493 122.136 193.459 122.652C195.689 122.943 197.403 124.299 197.588 124.424C198.171 124.921 198.673 125.442 199.103 125.951L240.567 115.266C238.748 106.11 234.226 100.201 226.998 97.5397C224.827 96.7403 218.872 95.5995 213.711 96.2681C205.744 97.3002 198.086 100.277 195.935 100.858C194.18 101.359 191.188 101.659 190.379 101.896C185.151 103.155 183.184 103.215 180.609 103.895C178.091 104.56 174.934 105.835 172.652 107.868C171.797 108.597 169.803 110.431 168.409 113.516C164.036 122.886 167.423 132.6 168.562 134.791C168.952 135.541 172.816 142.917 178.059 149.293C183.53 155.947 190.379 161.594 190.379 161.594C194.575 160.561 196.538 154.911 196.267 144.644ZM239.201 123.101C239.947 122.795 239.984 121.743 239.335 121.306C238.516 120.822 237.154 120.443 235.602 120.744C232.421 121.362 229.414 124.116 233.164 124.353C235.38 124.566 237.803 123.774 239.201 123.101ZM223.324 126.745C224.069 126.439 224.106 125.387 223.38 124.965C222.561 124.481 221.199 124.102 219.569 124.419C216.388 125.036 213.396 127.868 217.131 128.027C219.517 128.288 221.832 127.356 223.324 126.745Z" fill="#482D1F"/>
<path d="M234.22 129.775C234.554 131.077 235.209 133.201 236.136 133.825C237.681 134.731 238.634 130.527 237.158 128.321C236.574 127.389 236.001 127.34 235.395 127.538C234.494 127.873 234.039 128.846 234.22 129.775ZM220.287 132.238C220.466 133.57 220.888 135.74 221.845 136.519C223.265 137.61 224.713 133.47 223.455 131.141C222.949 130.194 222.36 130.067 221.739 130.188C220.808 130.368 220.183 131.294 220.287 132.238Z" fill="#482D1F"/>
<path d="M229.756 146.962C229.182 146.912 227.788 146.781 227.389 145.974C227.359 145.819 227.236 145.602 227.284 145.432C227.489 144.829 228.48 144.959 229.892 144.765C232.405 144.438 234.377 143.814 234.377 143.814C234.377 143.814 234.135 145.469 233.838 146.009C233.211 147.337 230.577 147.044 229.756 146.962Z" fill="#482D1F"/>
<path d="M232.001 130.367L231.972 130.261L231.99 130.313L232.001 130.367ZM234.75 138.324C235.066 139.17 234.555 140.159 233.699 140.478C233.509 140.534 233.509 140.534 233.385 140.568C232.095 140.922 231.284 141.118 229.879 141.391C229.451 141.474 229.036 141.195 228.952 140.767C228.869 140.339 229.149 139.925 229.578 139.842C230.938 139.578 231.712 139.39 232.965 139.046L233.213 138.978C233.214 138.974 233.267 138.871 233.262 138.857L230.477 130.775L230.449 130.668L229.559 126.098C229.476 125.67 229.756 125.256 230.184 125.173C230.613 125.089 231.027 125.369 231.111 125.797L231.99 130.313L234.75 138.324Z" fill="#482D1F"/>
<path d="M510.872 254H529.494V248.929H517.023V224.909H510.872V254ZM543.312 254.426C549.931 254.426 554.05 249.895 554.05 243.176C554.05 236.415 549.931 231.898 543.312 231.898C536.692 231.898 532.573 236.415 532.573 243.176C532.573 249.895 536.692 254.426 543.312 254.426ZM543.34 249.739C540.286 249.739 538.724 246.94 538.724 243.134C538.724 239.327 540.286 236.514 543.34 236.514C546.337 236.514 547.9 239.327 547.9 243.134C547.9 246.94 546.337 249.739 543.34 249.739ZM567.815 262.494C574.05 262.494 578.482 259.653 578.482 254.213V232.182H572.474V235.847H572.246C571.437 234.071 569.661 231.898 566.011 231.898C561.224 231.898 557.175 235.619 557.175 243.048C557.175 250.307 561.11 253.688 566.025 253.688C569.505 253.688 571.451 251.94 572.246 250.136H572.502V254.128C572.502 256.983 570.585 258.148 567.957 258.148C565.286 258.148 563.937 256.983 563.44 255.804L557.843 256.557C558.567 259.852 561.934 262.494 567.815 262.494ZM567.942 249.142C564.974 249.142 563.354 246.784 563.354 243.02C563.354 239.312 564.945 236.713 567.942 236.713C570.883 236.713 572.531 239.199 572.531 243.02C572.531 246.869 570.854 249.142 567.942 249.142ZM593.156 254.426C599.775 254.426 603.894 249.895 603.894 243.176C603.894 236.415 599.775 231.898 593.156 231.898C586.536 231.898 582.417 236.415 582.417 243.176C582.417 249.895 586.536 254.426 593.156 254.426ZM593.184 249.739C590.13 249.739 588.567 246.94 588.567 243.134C588.567 239.327 590.13 236.514 593.184 236.514C596.181 236.514 597.744 239.327 597.744 243.134C597.744 246.94 596.181 249.739 593.184 249.739ZM617.087 262.182H623.138V250.506H623.322C624.161 252.324 625.993 254.355 629.516 254.355C634.487 254.355 638.365 250.42 638.365 243.119C638.365 235.619 634.317 231.898 629.53 231.898C625.879 231.898 624.132 234.071 623.322 235.847H623.053V232.182H617.087V262.182ZM623.01 243.091C623.01 239.199 624.658 236.713 627.598 236.713C630.595 236.713 632.186 239.312 632.186 243.091C632.186 246.898 630.567 249.54 627.598 249.54C624.686 249.54 623.01 246.983 623.01 243.091ZM642.399 254H648.45V241.656C648.45 238.972 650.411 237.125 653.081 237.125C653.919 237.125 655.07 237.267 655.638 237.452V232.082C655.098 231.955 654.345 231.869 653.734 231.869C651.291 231.869 649.288 233.29 648.493 235.989H648.266V232.182H642.399V254ZM667.694 254.426C673.092 254.426 676.728 251.798 677.58 247.75L671.984 247.381C671.373 249.043 669.81 249.909 667.793 249.909C664.768 249.909 662.85 247.906 662.85 244.653V244.639H677.708V242.977C677.708 235.562 673.219 231.898 667.452 231.898C661.032 231.898 656.87 236.457 656.87 243.19C656.87 250.108 660.975 254.426 667.694 254.426ZM662.85 240.889C662.978 238.403 664.867 236.415 667.552 236.415C670.18 236.415 671.998 238.29 672.012 240.889H662.85ZM701.646 232.182H695.24L690.723 247.793H690.496L685.964 232.182H679.572L687.2 254H694.018L701.646 232.182ZM704.743 254H710.794V232.182H704.743V254ZM707.783 229.369C709.587 229.369 711.064 227.991 711.064 226.301C711.064 224.625 709.587 223.247 707.783 223.247C705.993 223.247 704.516 224.625 704.516 226.301C704.516 227.991 705.993 229.369 707.783 229.369ZM725.585 254.426C730.982 254.426 734.619 251.798 735.471 247.75L729.874 247.381C729.263 249.043 727.701 249.909 725.684 249.909C722.658 249.909 720.741 247.906 720.741 244.653V244.639H735.599V242.977C735.599 235.562 731.11 231.898 725.343 231.898C718.923 231.898 714.761 236.457 714.761 243.19C714.761 250.108 718.866 254.426 725.585 254.426ZM720.741 240.889C720.869 238.403 722.758 236.415 725.442 236.415C728.07 236.415 729.888 238.29 729.903 240.889H720.741ZM743.695 254H750.087L753.837 240.278H754.107L757.857 254H764.263L770.187 232.182H764.079L760.755 246.756H760.57L756.991 232.182H750.982L747.46 246.841H747.261L743.88 232.182H737.758L743.695 254Z" fill="#656464"/>
<path d="M404.212 288.909H400.296V284.335H396.58V288.909H393.784V291.892H396.58V303.165C396.568 306.633 399.215 308.311 402.148 308.249C403.329 308.236 404.125 308.012 404.56 307.851L403.888 304.781C403.64 304.831 403.18 304.942 402.583 304.942C401.378 304.942 400.296 304.545 400.296 302.395V291.892H404.212V288.909ZM412.449 296.665C412.449 293.62 414.375 291.88 417.023 291.88C419.583 291.88 421.112 293.508 421.112 296.304V308H424.828V295.857C424.828 291.097 422.218 288.661 418.29 288.661C415.32 288.661 413.53 289.953 412.635 292.016H412.399V282.545H408.733V308H412.449V296.665ZM438.015 308.385C442.179 308.385 445.125 306.335 445.97 303.227L442.452 302.593C441.781 304.396 440.165 305.315 438.053 305.315C434.871 305.315 432.733 303.252 432.634 299.573H446.206V298.256C446.206 291.358 442.08 288.661 437.754 288.661C432.435 288.661 428.93 292.712 428.93 298.579C428.93 304.507 432.385 308.385 438.015 308.385ZM432.646 296.789C432.795 294.08 434.759 291.73 437.779 291.73C440.663 291.73 442.552 293.868 442.564 296.789H432.646ZM459.592 315.159H463.308V305.029H463.532C464.203 306.248 465.57 308.373 469.05 308.373C473.674 308.373 477.03 304.669 477.03 298.492C477.03 292.302 473.624 288.661 469.013 288.661C465.471 288.661 464.191 290.823 463.532 292.004H463.221V288.909H459.592V315.159ZM463.234 298.455C463.234 294.465 464.974 291.817 468.218 291.817C471.586 291.817 473.276 294.664 473.276 298.455C473.276 302.283 471.536 305.203 468.218 305.203C465.023 305.203 463.234 302.469 463.234 298.455ZM481.194 308H484.91V296.342C484.91 293.843 486.836 292.041 489.471 292.041C490.242 292.041 491.112 292.178 491.41 292.265V288.71C491.037 288.661 490.304 288.623 489.832 288.623C487.594 288.623 485.68 289.891 484.984 291.942H484.786V288.909H481.194V308ZM501.984 308.385C507.366 308.385 510.883 304.445 510.883 298.542C510.883 292.6 507.366 288.661 501.984 288.661C496.602 288.661 493.085 292.6 493.085 298.542C493.085 304.445 496.602 308.385 501.984 308.385ZM501.997 305.266C498.479 305.266 496.839 302.196 496.839 298.529C496.839 294.875 498.479 291.768 501.997 291.768C505.489 291.768 507.13 294.875 507.13 298.529C507.13 302.196 505.489 305.266 501.997 305.266ZM515.031 288.909V309.193C515.031 310.971 514.298 311.94 512.533 311.94C512.322 311.94 512.16 311.94 511.937 311.928V315.134H512.657C516.647 315.184 518.748 313.046 518.748 309.218V288.909H515.031ZM516.871 285.963C518.151 285.963 519.22 284.969 519.22 283.751C519.22 282.533 518.151 281.526 516.871 281.526C515.578 281.526 514.522 282.533 514.522 283.751C514.522 284.969 515.578 285.963 516.871 285.963ZM531.975 308.385C536.139 308.385 539.085 306.335 539.93 303.227L536.412 302.593C535.741 304.396 534.125 305.315 532.013 305.315C528.831 305.315 526.693 303.252 526.593 299.573H540.166V298.256C540.166 291.358 536.04 288.661 531.714 288.661C526.395 288.661 522.89 292.712 522.89 298.579C522.89 304.507 526.345 308.385 531.975 308.385ZM526.606 296.789C526.755 294.08 528.719 291.73 531.739 291.73C534.623 291.73 536.512 293.868 536.524 296.789H526.606ZM552.331 308.385C556.843 308.385 559.763 305.676 560.173 301.96H556.557C556.084 304.023 554.481 305.241 552.356 305.241C549.211 305.241 547.185 302.618 547.185 298.455C547.185 294.365 549.248 291.793 552.356 291.793C554.717 291.793 556.159 293.284 556.557 295.074H560.173C559.776 291.221 556.631 288.661 552.294 288.661C546.912 288.661 543.432 292.712 543.432 298.542C543.432 304.296 546.787 308.385 552.331 308.385ZM573.059 288.909H569.144V284.335H565.428V288.909H562.631V291.892H565.428V303.165C565.415 306.633 568.063 308.311 570.996 308.249C572.177 308.236 572.972 308.012 573.407 307.851L572.736 304.781C572.487 304.831 572.028 304.942 571.431 304.942C570.225 304.942 569.144 304.545 569.144 302.395V291.892H573.059V288.909ZM586.433 308H590.149V288.909H586.433V308ZM588.31 285.963C589.59 285.963 590.659 284.969 590.659 283.751C590.659 282.533 589.59 281.526 588.31 281.526C587.017 281.526 585.96 282.533 585.96 283.751C585.96 284.969 587.017 285.963 588.31 285.963ZM609.454 293.57C608.684 290.599 606.36 288.661 602.233 288.661C597.92 288.661 594.863 290.935 594.863 294.316C594.863 297.025 596.503 298.827 600.083 299.623L603.314 300.331C605.154 300.741 606.012 301.562 606.012 302.755C606.012 304.234 604.433 305.39 601.997 305.39C599.772 305.39 598.343 304.433 597.895 302.556L594.303 303.103C594.925 306.484 597.734 308.385 602.022 308.385C606.633 308.385 609.827 305.937 609.827 302.482C609.827 299.784 608.112 298.119 604.607 297.311L601.574 296.615C599.474 296.118 598.567 295.409 598.579 294.117C598.567 292.65 600.157 291.606 602.27 291.606C604.582 291.606 605.651 292.886 606.086 294.167L609.454 293.57ZM631.218 308.385C635.729 308.385 638.65 305.676 639.06 301.96H635.443C634.971 304.023 633.368 305.241 631.242 305.241C628.098 305.241 626.072 302.618 626.072 298.455C626.072 294.365 628.135 291.793 631.242 291.793C633.604 291.793 635.046 293.284 635.443 295.074H639.06C638.662 291.221 635.518 288.661 631.18 288.661C625.798 288.661 622.318 292.712 622.318 298.542C622.318 304.296 625.674 308.385 631.218 308.385ZM655.128 300.083C655.14 303.327 652.729 304.868 650.641 304.868C648.342 304.868 646.751 303.202 646.751 300.605V288.909H643.034V301.052C643.034 305.788 645.632 308.249 649.299 308.249C652.17 308.249 654.121 306.732 655.003 304.694H655.202V308H658.856V288.909H655.128V300.083ZM663.85 308H667.566V296.342C667.566 293.843 669.493 292.041 672.127 292.041C672.898 292.041 673.768 292.178 674.066 292.265V288.71C673.694 288.661 672.96 288.623 672.488 288.623C670.251 288.623 668.337 289.891 667.641 291.942H667.442V288.909H663.85V308ZM677.282 308H680.999V296.342C680.999 293.843 682.925 292.041 685.56 292.041C686.331 292.041 687.201 292.178 687.499 292.265V288.71C687.126 288.661 686.393 288.623 685.921 288.623C683.683 288.623 681.769 289.891 681.073 291.942H680.874V288.909H677.282V308ZM698.259 308.385C702.423 308.385 705.369 306.335 706.214 303.227L702.697 302.593C702.025 304.396 700.41 305.315 698.297 305.315C695.115 305.315 692.977 303.252 692.878 299.573H706.45V298.256C706.45 291.358 702.324 288.661 697.998 288.661C692.679 288.661 689.174 292.712 689.174 298.579C689.174 304.507 692.629 308.385 698.259 308.385ZM692.89 296.789C693.039 294.08 695.003 291.73 698.023 291.73C700.907 291.73 702.796 293.868 702.808 296.789H692.89ZM714.29 296.665C714.29 293.62 716.154 291.88 718.739 291.88C721.262 291.88 722.791 293.533 722.791 296.304V308H726.507V295.857C726.507 291.134 723.91 288.661 720.007 288.661C717.136 288.661 715.259 289.99 714.377 292.016H714.141V288.909H710.573V308H714.29V296.665ZM740.403 288.909H736.488V284.335H732.772V288.909H729.975V291.892H732.772V303.165C732.759 306.633 735.407 308.311 738.34 308.249C739.521 308.236 740.316 308.012 740.751 307.851L740.08 304.781C739.831 304.831 739.371 304.942 738.775 304.942C737.569 304.942 736.488 304.545 736.488 302.395V291.892H740.403V288.909ZM748.64 282.545H744.924V308H748.64V282.545ZM755.989 315.109C759.059 315.109 761.01 313.506 762.104 310.548L769.996 288.946L765.982 288.909L761.147 303.724H760.948L756.113 288.909H752.136L759.121 308.249L758.661 309.516C757.717 311.99 756.387 312.213 754.348 311.654L753.453 314.699C753.901 314.911 754.87 315.109 755.989 315.109ZM494.959 350H498.588V347.029H498.899C499.57 348.248 500.937 350.373 504.417 350.373C509.041 350.373 512.396 346.669 512.396 340.492C512.396 334.302 508.991 330.661 504.38 330.661C500.838 330.661 499.557 332.823 498.899 334.004H498.675V324.545H494.959V350ZM498.6 340.455C498.6 336.465 500.34 333.817 503.584 333.817C506.953 333.817 508.643 336.664 508.643 340.455C508.643 344.283 506.903 347.203 503.584 347.203C500.39 347.203 498.6 344.469 498.6 340.455ZM524.797 350.385C528.961 350.385 531.907 348.335 532.752 345.227L529.235 344.593C528.563 346.396 526.948 347.315 524.835 347.315C521.653 347.315 519.515 345.252 519.416 341.573H532.988V340.256C532.988 333.358 528.862 330.661 524.536 330.661C519.217 330.661 515.712 334.712 515.712 340.579C515.712 346.507 519.167 350.385 524.797 350.385ZM519.428 338.789C519.577 336.08 521.541 333.73 524.561 333.73C527.445 333.73 529.334 335.868 529.347 338.789H519.428ZM537.112 350H540.828V330.909H537.112V350ZM538.988 327.963C540.268 327.963 541.337 326.969 541.337 325.751C541.337 324.533 540.268 323.526 538.988 323.526C537.696 323.526 536.639 324.533 536.639 325.751C536.639 326.969 537.696 327.963 538.988 327.963ZM549.544 338.665C549.544 335.62 551.408 333.88 553.993 333.88C556.516 333.88 558.045 335.533 558.045 338.304V350H561.761V337.857C561.761 333.134 559.164 330.661 555.261 330.661C552.39 330.661 550.513 331.99 549.631 334.016H549.394V330.909H545.827V350H549.544V338.665ZM574.75 357.52C579.609 357.52 583.363 355.295 583.363 350.423V330.909H579.721V334.004H579.448C578.789 332.823 577.472 330.661 573.917 330.661C569.306 330.661 565.913 334.302 565.913 340.38C565.913 346.47 569.38 349.714 573.892 349.714C577.397 349.714 578.752 347.738 579.423 346.52H579.659V350.273C579.659 353.219 577.608 354.524 574.787 354.524C571.692 354.524 570.486 352.971 569.828 351.914L566.633 353.232C567.64 355.531 570.188 357.52 574.75 357.52ZM574.712 346.632C571.394 346.632 569.666 344.084 569.666 340.33C569.666 336.664 571.356 333.817 574.712 333.817C577.956 333.817 579.696 336.465 579.696 340.33C579.696 344.27 577.919 346.632 574.712 346.632ZM604.756 350.373C608.236 350.373 609.604 348.248 610.275 347.029H610.585V350H614.215V324.545H610.498V334.004H610.275C609.604 332.823 608.336 330.661 604.781 330.661C600.17 330.661 596.777 334.302 596.777 340.492C596.777 346.669 600.12 350.373 604.756 350.373ZM605.577 347.203C602.258 347.203 600.53 344.283 600.53 340.455C600.53 336.664 602.221 333.817 605.577 333.817C608.82 333.817 610.561 336.465 610.561 340.455C610.561 344.469 608.783 347.203 605.577 347.203ZM627.747 350.385C631.91 350.385 634.856 348.335 635.701 345.227L632.184 344.593C631.513 346.396 629.897 347.315 627.784 347.315C624.602 347.315 622.464 345.252 622.365 341.573H635.937V340.256C635.937 333.358 631.811 330.661 627.486 330.661C622.166 330.661 618.661 334.712 618.661 340.579C618.661 346.507 622.116 350.385 627.747 350.385ZM622.377 338.789C622.527 336.08 624.49 333.73 627.511 333.73C630.394 333.73 632.283 335.868 632.296 338.789H622.377ZM656.29 330.909H652.3L647.478 345.6H647.279L642.444 330.909H638.454L645.39 350H649.367L656.29 330.909ZM667.327 350.385C671.491 350.385 674.436 348.335 675.281 345.227L671.764 344.593C671.093 346.396 669.477 347.315 667.364 347.315C664.182 347.315 662.044 345.252 661.945 341.573H675.517V340.256C675.517 333.358 671.391 330.661 667.066 330.661C661.746 330.661 658.241 334.712 658.241 340.579C658.241 346.507 661.696 350.385 667.327 350.385ZM661.957 338.789C662.107 336.08 664.07 333.73 667.091 333.73C669.974 333.73 671.863 335.868 671.876 338.789H661.957ZM683.357 324.545H679.641V350H683.357V324.545ZM696.398 350.385C701.78 350.385 705.297 346.445 705.297 340.542C705.297 334.6 701.78 330.661 696.398 330.661C691.016 330.661 687.499 334.6 687.499 340.542C687.499 346.445 691.016 350.385 696.398 350.385ZM696.411 347.266C692.893 347.266 691.253 344.196 691.253 340.529C691.253 336.875 692.893 333.768 696.411 333.768C699.903 333.768 701.544 336.875 701.544 340.529C701.544 344.196 699.903 347.266 696.411 347.266ZM709.445 357.159H713.162V347.029H713.385C714.057 348.248 715.424 350.373 718.904 350.373C723.528 350.373 726.883 346.669 726.883 340.492C726.883 334.302 723.478 330.661 718.867 330.661C715.324 330.661 714.044 332.823 713.385 334.004H713.075V330.909H709.445V357.159ZM713.087 340.455C713.087 336.465 714.827 333.817 718.071 333.817C721.439 333.817 723.13 336.664 723.13 340.455C723.13 344.283 721.39 347.203 718.071 347.203C714.877 347.203 713.087 344.469 713.087 340.455ZM739.275 350.385C743.439 350.385 746.384 348.335 747.23 345.227L743.712 344.593C743.041 346.396 741.425 347.315 739.312 347.315C736.131 347.315 733.993 345.252 733.893 341.573H747.466V340.256C747.466 333.358 743.339 330.661 739.014 330.661C733.694 330.661 730.189 334.712 730.189 340.579C730.189 346.507 733.645 350.385 739.275 350.385ZM733.906 338.789C734.055 336.08 736.019 333.73 739.039 333.73C741.922 333.73 743.812 335.868 743.824 338.789H733.906ZM758.736 350.373C762.216 350.373 763.583 348.248 764.254 347.029H764.565V350H768.194V324.545H764.478V334.004H764.254C763.583 332.823 762.315 330.661 758.761 330.661C754.149 330.661 750.756 334.302 750.756 340.492C750.756 346.669 754.1 350.373 758.736 350.373ZM759.556 347.203C756.237 347.203 754.51 344.283 754.51 340.455C754.51 336.664 756.2 333.817 759.556 333.817C762.8 333.817 764.54 336.465 764.54 340.455C764.54 344.469 762.763 347.203 759.556 347.203Z" fill="#656464" fill-opacity="0.55"/>
<path d="M519.539 487.89L526.807 480.545C527.753 479.589 529.042 479.051 530.387 479.051H775.293C776.649 479.051 777.947 479.597 778.894 480.566L786.125 487.958L519.539 487.89Z" fill="#FFBB36"/>
<path d="M528.285 408.357V403.25C528.285 400.47 530.54 398.216 533.321 398.216H772.376C775.158 398.216 777.413 400.47 777.413 403.25V408.425C777.414 411.205 775.159 413.459 772.378 413.459C772.377 413.459 772.377 413.459 772.376 413.457L533.321 413.392C530.54 413.39 528.287 411.136 528.285 408.357ZM528.285 428.559V423.452C528.285 420.672 530.54 418.418 533.321 418.418H772.376C775.158 418.418 777.413 420.672 777.413 423.452V428.627C777.414 431.407 775.159 433.661 772.378 433.661C772.377 433.661 772.377 433.661 772.376 433.66L533.321 433.594C530.54 433.592 528.287 431.338 528.285 428.559ZM528.285 448.694V443.587C528.285 440.806 530.54 438.553 533.321 438.553H772.376C775.158 438.553 777.413 440.806 777.413 443.587V448.762C777.414 451.542 775.159 453.796 772.378 453.796C772.377 453.796 772.377 453.796 772.376 453.794L533.321 453.729C530.54 453.727 528.287 451.473 528.285 448.694ZM528.285 468.829V463.721C528.285 460.941 530.54 458.688 533.321 458.688H772.376C775.158 458.688 777.413 460.941 777.413 463.721V468.897C777.414 471.677 775.159 473.931 772.378 473.931C772.377 473.931 772.377 473.931 772.376 473.929L533.321 473.864C530.54 473.862 528.287 471.608 528.285 468.829ZM521.05 487.145H784.614C785.449 487.145 786.125 487.821 786.125 488.655V496.709C786.125 497.543 785.449 498.219 784.614 498.219H521.05C520.215 498.219 519.539 497.543 519.539 496.709V488.655C519.539 487.821 520.215 487.145 521.05 487.145Z" fill="#FFD28D"/>
<path d="M544.552 498.219H561.675L553.677 560.606C553.355 563.118 551.216 565 548.682 565H541.713C538.932 565 536.677 562.746 536.677 559.966C536.677 559.752 536.691 559.539 536.718 559.326L544.552 498.219ZM761.112 498.219L768.946 559.326C768.973 559.539 768.987 559.752 768.987 559.966C768.987 562.746 766.732 565 763.951 565H756.982C754.448 565 752.309 563.118 751.987 560.606L743.988 498.219H761.112Z" fill="#DB9E75"/>
<g clip-path="url(#clip1)">
<path d="M758.59 197.724H654.433C650.344 197.724 647.003 194.655 647.003 190.897V127.859C647.003 124.101 650.344 121.033 654.433 121.033H758.59C762.68 121.033 766.02 124.101 766.02 127.859V190.865C766.02 194.655 762.68 197.724 758.59 197.724Z" fill="#F2F6FB"/>
<path d="M647.038 120.62C647.038 116.803 650.09 113.709 653.855 113.709H759.169C762.934 113.709 765.986 116.805 765.986 120.62V128.564H647.038V120.62Z" fill="#E1E5F0"/>
<path d="M665.357 156.545H678.479C679.561 156.545 680.439 157.435 680.439 158.532C680.439 159.629 679.561 160.518 678.479 160.518H665.357C664.275 160.518 663.397 159.629 663.397 158.532C663.397 157.435 664.275 156.545 665.357 156.545ZM665.357 178.655H678.479C679.561 178.655 680.439 179.544 680.439 180.641C680.439 181.738 679.561 182.627 678.479 182.627H665.357C664.275 182.627 663.397 181.738 663.397 180.641C663.397 179.544 664.275 178.655 665.357 178.655ZM685.466 156.545H698.588C699.67 156.545 700.548 157.435 700.548 158.532C700.548 159.629 699.67 160.518 698.588 160.518H685.466C684.384 160.518 683.506 159.629 683.506 158.532C683.506 157.435 684.384 156.545 685.466 156.545ZM685.466 178.655H698.588C699.67 178.655 700.548 179.544 700.548 180.641C700.548 181.738 699.67 182.627 698.588 182.627H685.466C684.384 182.627 683.506 181.738 683.506 180.641C683.506 179.544 684.384 178.655 685.466 178.655ZM705.575 156.545H718.697C719.779 156.545 720.656 157.435 720.656 158.532C720.656 159.629 719.779 160.518 718.697 160.518H705.575C704.493 160.518 703.615 159.629 703.615 158.532C703.615 157.435 704.493 156.545 705.575 156.545ZM705.575 178.655H718.697C719.779 178.655 720.656 179.544 720.656 180.641C720.656 181.738 719.779 182.627 718.697 182.627H705.575C704.493 182.627 703.615 181.738 703.615 180.641C703.615 179.544 704.493 178.655 705.575 178.655ZM665.357 145.491H689.726C690.809 145.491 691.686 146.38 691.686 147.477C691.686 148.574 690.809 149.464 689.726 149.464H665.357C664.275 149.464 663.397 148.574 663.397 147.477C663.397 146.38 664.275 145.491 665.357 145.491ZM720.571 145.491H748.008C749.09 145.491 749.968 146.38 749.968 147.477C749.968 148.574 749.09 149.464 748.008 149.464H720.571C719.489 149.464 718.611 148.574 718.611 147.477C718.611 146.38 719.489 145.491 720.571 145.491ZM720.571 167.6H748.008C749.09 167.6 749.968 168.489 749.968 169.586C749.968 170.683 749.09 171.573 748.008 171.573H720.571C719.489 171.573 718.611 170.683 718.611 169.586C718.611 168.489 719.489 167.6 720.571 167.6ZM696.713 167.6H701.655C702.738 167.6 703.615 168.489 703.615 169.586C703.615 170.683 702.738 171.573 701.655 171.573H696.713C695.631 171.573 694.754 170.683 694.754 169.586C694.754 168.489 695.631 167.6 696.713 167.6ZM708.642 145.491H713.584C714.667 145.491 715.544 146.38 715.544 147.477C715.544 148.574 714.667 149.464 713.584 149.464H708.642C707.56 149.464 706.683 148.574 706.683 147.477C706.683 146.38 707.56 145.491 708.642 145.491ZM725.684 156.545H748.008C749.09 156.545 749.968 157.435 749.968 158.532C749.968 159.629 749.09 160.518 748.008 160.518H725.684C724.601 160.518 723.724 159.629 723.724 158.532C723.724 157.435 724.601 156.545 725.684 156.545Z" fill="#E1E5F0"/>
<path d="M665.357 167.6H689.726C690.809 167.6 691.686 168.489 691.686 169.586C691.686 170.683 690.809 171.573 689.726 171.573H665.357C664.275 171.573 663.397 170.683 663.397 169.586C663.397 168.489 664.275 167.6 665.357 167.6ZM708.642 167.6H713.584C714.667 167.6 715.544 168.489 715.544 169.586C715.544 170.683 714.667 171.573 713.584 171.573H708.642C707.56 171.573 706.683 170.683 706.683 169.586C706.683 168.489 707.56 167.6 708.642 167.6Z" fill="#A339FF"/>
<path d="M696.713 145.491H701.655C702.738 145.491 703.615 146.38 703.615 147.477C703.615 148.574 702.738 149.464 701.655 149.464H696.713C695.631 149.464 694.754 148.574 694.754 147.477C694.754 146.38 695.631 145.491 696.713 145.491ZM725.684 178.655H748.008C749.09 178.655 749.968 179.544 749.968 180.641C749.968 181.738 749.09 182.627 748.008 182.627H725.684C724.601 182.627 723.724 181.738 723.724 180.641C723.724 179.544 724.601 178.655 725.684 178.655Z" fill="#FF5645"/>
<path d="M664.42 103H621.817C618.052 103 615 106.093 615 109.909V131.673C615 135.489 618.052 138.582 621.817 138.582H664.42C668.185 138.582 671.237 135.489 671.237 131.673V109.909C671.237 106.093 668.185 103 664.42 103Z" fill="#3ABF7C"/>
<path fill-rule="evenodd" clip-rule="evenodd" d="M634.507 111.59C635.097 112.333 634.981 113.42 634.248 114.018L624.871 121.666L634.564 127.049C635.39 127.507 635.692 128.557 635.24 129.393C634.788 130.23 633.752 130.537 632.927 130.078L620.998 123.454C620.499 123.177 620.169 122.666 620.119 122.092C620.069 121.517 620.305 120.955 620.748 120.594L632.111 111.327C632.845 110.729 633.917 110.847 634.507 111.59Z" fill="white"/>
<path fill-rule="evenodd" clip-rule="evenodd" d="M650.046 111.723C650.563 110.926 651.62 110.706 652.406 111.23L664.335 119.193C664.809 119.509 665.097 120.044 665.102 120.619C665.107 121.195 664.83 121.735 664.362 122.06L652.957 129.988C652.181 130.528 651.12 130.328 650.588 129.541C650.056 128.754 650.253 127.679 651.029 127.139L660.343 120.665L650.532 114.116C649.746 113.591 649.528 112.52 650.046 111.723Z" fill="white"/>
<path fill-rule="evenodd" clip-rule="evenodd" d="M645.45 107.663C646.367 107.874 646.942 108.8 646.734 109.73L641.542 132.879C641.333 133.81 640.42 134.392 639.503 134.181C638.585 133.969 638.01 133.044 638.219 132.114L643.41 108.964C643.619 108.034 644.532 107.452 645.45 107.663Z" fill="white"/>
</g>
<path d="M652.836 519.496C648.95 521.42 647.624 523.326 647.417 524.992C647.114 527.795 647.771 530.048 649.338 533.752C652.371 541.161 654.949 548.67 657.021 556.379C657.628 556.249 658.233 556.112 658.837 555.967C657.571 560.78 657.615 564.461 657.615 564.461C714.408 564.461 742.331 564.461 741.384 564.461C739.963 564.461 729.693 536.741 693.453 533.924C692.412 533.842 691.401 533.789 690.419 533.765C690.198 532.846 689.817 532.016 689.126 530.761C690.644 527.051 691.813 518.356 692.21 514.735C692.21 514.586 692.159 514.437 692.108 514.288C691.904 513.892 691.344 513.693 690.885 513.892L679.413 519.496C677.454 518.782 675.382 518.132 673.196 517.483C671.126 516.852 669.056 516.314 667.109 515.821L663.002 505.184C662.851 504.777 662.346 504.522 661.942 504.726C661.79 504.777 661.689 504.878 661.588 505.031C659.463 508.02 654.241 515.642 652.836 519.496Z" fill="#FFCB3D"/>
<path d="M743.561 561.046C743.989 558.35 742.848 556.709 740.139 556.124C728.965 555.507 719.023 556.334 710.312 558.604C701.601 560.874 696.528 562.855 695.092 564.549H740.139C742.051 564.549 743.561 563.004 743.561 561.046ZM654.818 542.803C653.515 541.298 649.507 534.827 649.507 534.827C649.507 534.827 653.916 548.171 656.572 556.448C656.421 555.746 658.526 561.364 658.776 559.909V559.859C659.127 558.204 660.48 557 662.183 556.899C663.787 556.799 665.49 556.749 667.294 556.749C669.599 556.749 671.954 556.899 674.258 557.2L677.615 547.017C674.359 548.672 670.651 549.274 667.043 548.973C665.791 548.873 664.588 548.622 663.386 548.271C660.079 547.318 657.123 545.362 654.818 542.803ZM666.871 530.49C666.16 531.284 665.002 531.559 663.998 531.106C663.084 530.576 662.599 529.551 662.793 528.508C662.874 528.07 662.583 527.648 662.143 527.567C661.703 527.486 661.28 527.776 661.198 528.214C660.876 529.951 661.698 531.666 663.227 532.529L663.283 532.557C664.641 533.19 666.174 533.014 667.336 532.22C667.699 533.088 668.422 533.83 669.396 534.269C671.354 535.01 673.548 534.28 674.536 532.556C674.758 532.169 674.622 531.675 674.234 531.454C673.845 531.232 673.349 531.367 673.127 531.755C672.544 532.774 671.197 533.222 670.018 532.777C669.126 532.374 668.615 531.55 668.707 530.742C668.71 530.737 668.713 530.732 668.716 530.727C668.95 530.32 668.997 529.812 668.95 529.354C668.903 528.998 668.716 528.693 668.481 528.541C668.012 528.185 667.307 528.388 667.026 528.896C666.777 529.386 666.757 529.981 666.871 530.49ZM680.564 530.513C679.994 531.58 680.517 533.106 681.087 533.207C681.514 533.258 682.036 532.699 682.226 532.343C682.464 531.936 682.511 531.428 682.464 530.97C682.416 530.615 682.226 530.309 681.989 530.157C681.514 529.801 680.849 530.004 680.564 530.513ZM656.221 521.892C655.694 522.96 656.173 524.383 656.749 524.587C657.18 524.637 657.708 524.078 657.899 523.722C658.139 523.316 658.187 522.807 658.139 522.35C658.091 521.994 657.899 521.689 657.66 521.536C657.18 521.18 656.509 521.384 656.221 521.892Z" fill="#DE6903"/>
</g>
<defs>
<clipPath id="clip0">
<rect width="800" height="564.704" fill="white"/>
</clipPath>
<clipPath id="clip1">
<path d="M615 103H766.327V198H615V103Z" fill="white"/>
</clipPath>
</defs>
</svg>
