<svg width="800" height="565" fill="none" xmlns="http://www.w3.org/2000/svg">
  <g clip-path="url(#clip0)">
    <path d="M117.369 430.207v74.421h81.251v-74.421h-81.251zm-7.738 0H28.3804v74.421h81.2506v-74.421zm-88.9887 0h-80.8207v74.421h80.8207v-74.421zm-80.8207 83.885v.861H287.178v-.861H-60.1784zm347.3564-9.464v-74.421h-80.82v74.421h80.82zM-77.3742 413H304.374v191H-77.3742V413zm309.2352 48.61h27.944l-7.448 40.867h-27.944l7.448-40.867zM61.9975 481.479c-1.6437-1.602-2.6645-3.841-2.6645-6.318 0-4.87 3.9457-8.819 8.8129-8.819s8.8129 3.949 8.8129 8.819c0 2.477-1.0209 4.716-2.6645 6.318 3.1542 2.027 5.2438 5.569 5.2438 9.599 0 6.296-5.1004 11.399-11.3922 11.399-6.2918 0-11.3923-5.103-11.3923-11.399 0-4.03 2.0897-7.572 5.2439-9.599zm-109.2789-18.148h30.5226v3.872h-30.5226v-3.872zm0 7.743h30.5226v3.872h-30.5226v-3.872zm36.9711 3.872H9.46495v17.637c0 5.465-4.42684 9.894-9.887631 9.894-5.460789 0-9.887619-4.429-9.887619-9.894v-17.637z" fill="#FFCB3D"/>
    <path d="M-58.4588 515.813v69.689h82.5402v-69.689h-82.5402zm-1.7196-.86v-.861H287.178v73.131H-60.1784v-72.27zm345.6374.86h-81.681v69.689h81.681v-69.689zm-83.4 0H114.36v69.689h87.699v-69.689zm-89.419 0H25.801v69.689h86.839v-69.689z" fill="#474BFF"/>
    <path d="M-6.57848 500.327c1.68905 1.346 3.82853 2.15 6.155796 2.15 2.327264 0 4.466744-.804 6.155794-2.15H20.6423v4.301h-80.8207v-4.301h53.59992zm68.06298 0c1.8733 1.353 4.1743 2.15 6.6614 2.15 2.4871 0 4.788-.797 6.6613-2.15h34.8238v4.301H28.3804v-4.301h33.1041zm163.3205 0l-.392 2.15h27.944l.392-2.15h34.429v4.301h-80.82v-4.301h18.447zM66.9149 466.428c-2.1982-2.432-3.8129-4.417-4.8439-5.956-2.1815-3.256-9.1523-8.564-2.5294-7.155 2.8647.609 5.3266 3.115 7.3858 7.517v-9.978h1.7196v11.802c2.1078-5.53 4.768-8.665 7.9804-9.408 6.5974-1.524-.2798 3.904-2.4041 7.198-.9988 1.549-2.5672 3.549-4.7052 6.001-.4472-.07-.9055-.107-1.3722-.107-.4178 0-.8287.029-1.231.086zm50.4541 33.899h81.251v4.301h-81.251v-4.301zM10.3247 553.239c-1.89937 0-3.43914-1.541-3.43914-3.442 0-1.9 1.53977-3.441 3.43914-3.441 1.8994 0 3.4392 1.541 3.4392 3.441 0 1.901-1.5398 3.442-3.4392 3.442zm177.9773 0c-1.899 0-3.439-1.541-3.439-3.442 0-1.9 1.54-3.441 3.439-3.441s3.439 1.541 3.439 3.441c0 1.901-1.54 3.442-3.439 3.442zm80.821 0c-1.9 0-3.44-1.541-3.44-3.442 0-1.9 1.54-3.441 3.44-3.441 1.899 0 3.439 1.541 3.439 3.441 0 1.901-1.54 3.442-3.439 3.442zm-169.8096 0c-1.8994 0-3.4392-1.541-3.4392-3.442 0-1.9 1.5398-3.441 3.4392-3.441 1.8996 0 3.4396 1.541 3.4396 3.441 0 1.901-1.54 3.442-3.4396 3.442zM-58.4588 413v17.207h-1.7196V413h1.7196zm343.9178 17.207V413h1.719v17.207h-1.719z" fill="#474961"/>
    <path d="M136.499 446.124c2.019 0 3.655 1.637 3.655 3.657v49.04c0 2.02-1.636 3.657-3.655 3.657-2.018 0-3.654-1.637-3.654-3.657v-49.04c0-2.02 1.636-3.657 3.654-3.657zm8.813 0c1.9 0 3.44 1.541 3.44 3.442v49.47c0 1.901-1.54 3.442-3.44 3.442-1.899 0-3.439-1.541-3.439-3.442v-49.47c0-1.901 1.54-3.442 3.439-3.442zm9.028 0c1.9 0 3.439 1.541 3.439 3.442v49.47c0 1.901-1.539 3.442-3.439 3.442-1.899 0-3.439-1.541-3.439-3.442v-49.47c0-1.901 1.54-3.442 3.439-3.442zm8.813 0c2.018 0 3.654 1.637 3.654 3.657v49.04c0 2.02-1.636 3.657-3.654 3.657s-3.654-1.637-3.654-3.657v-49.04c0-2.02 1.636-3.657 3.654-3.657zm8.813 0c1.899 0 3.439 1.541 3.439 3.442v49.47c0 1.901-1.54 3.442-3.439 3.442s-3.439-1.541-3.439-3.442v-49.47c0-1.901 1.54-3.442 3.439-3.442zm9.028 0c1.899 0 3.439 1.541 3.439 3.442v49.47c0 1.901-1.54 3.442-3.439 3.442-1.9 0-3.439-1.541-3.439-3.442v-49.47c0-1.901 1.539-3.442 3.439-3.442zm78.811 15.487s2.9 13.622 8.701 40.867h-9.362l-3.953-18.584c3.076-14.856 4.614-22.283 4.614-22.283zm-276.5638 1.72h-30.5226v-10.539h30.5226v10.539zm0 3.872v3.872h-30.5226v-3.872h30.5226zm0 7.743v12.26c0 8.435-6.8327 15.272-15.2613 15.272s-15.2613-6.837-15.2613-15.272v-12.26h30.5226zm82.8762-30.684c-.4641-2.04-.042-3.06 1.2665-3.06 2.1174 0 1.8517 1.919 1.7169 3.06-.0468.397.9041-.808 2.5877-.207 2.2229.794 1.209 3.061-3.0416 6.801h-1.7195c-3.3434-2.349-4.858-4.282-4.5438-5.8.3142-1.518 1.5587-1.782 3.7338-.794z" fill="#474BFF"/>
    <g clip-path="url(#clip1)">
      <path d="M546.792 319.209c-2.473.29-4.694.411-6.664.364-6.976-.164-18.334 1.374-27.904 0-32.621-4.683-36.76-12.524-37.436-15.951-.929-4.777 1.268-7.892 13.773-29.701 10.646-18.486 43.33-54.404 53.252-61.065 6.615-4.44 17.587-8.31 32.915-11.608-.032.07-.064.146-.097.228 15.966-5.952 35.477-6.377 45.964-6.844 5.486-.223 35.602-.223 41.088 0 8.407.374 20.089 1.689 31.389 5.752.652-1.351 1.789-1.938 3.539-1.542 10.603 1.452 31.029 8.345 32.48 9.015 22.204 9.125 79.68 50.847 83.475 53.64 3.795 2.793-6.8 18.622-16.441 27.705-9.338 8.797-21.183 10.64-41.698 23.04-2.655 1.605-8.988 2.642-18.998 3.112.489 33.616.816 50.915 1.078 58.926 0 0-.117 1.117 0 2.793.233 4.916.35 25.137-10.156 34.075-1.401 1.117-2.918 2.123-4.202 2.793-2.802 1.564-5.136 2.123-5.136 2.123l-.234.111c-75.757 18.323-151.397 0-151.397 0-.117-.111-.234-.111-.234-.111s-2.334-.559-5.136-2.123c-1.4-.67-2.801-1.564-4.202-2.793-10.389-8.938-10.272-29.159-10.039-34.075v-2.793c.252-7.778.563-24.015 1.021-55.071z" fill="#FF5645"/>
      <path d="M594.819 345.58c18.24-3.242 35.607-4.863 52.103-4.863 10.546 0 21.082.663 31.607 1.988V198.933c0-2.468 1.999-4.468 4.465-4.468h10.045c2.466 0 4.465 2 4.465 4.468v146.889c23.665 5.152 40.729 25.874 41.283 50.091 4.793 21.778 16.863 80.761 31.378 182.635 6.585 46.7 11.608 86.808 15.291 117.643l-.335.112c2.121 18.545 4.241 38.879 4.688 44.353 1.004 13.406 2.902 34.187 5.246 58.43 6.027 62.899 12.724 153.17 14.844 183.111.224 3.91 1.675 14.524-4.241 22.013-1.786 2.12-3.46 3.24-6.92 5.25-2.79 1.67-14.733 7.15-39.4 11.95-1.562.22-3.237.45-4.911.56-25.783 1.45-32.368.22-42.525-2.01-6.808-1.45-12.166-7.37-13.617-15.08-6.25-33.52-23.662-124.908-25.113-133.063-2.009-10.279-3.906-21.898-5.804-35.193-13.931-81.985-24.803-153.332-32.615-214.042-1.797 29.675-3.58 59.351-5.334 89.026-3.46 26.031-5.246 46.812-6.139 58.989 0 0-10.268 140.992-23.104 230.483-.446 2.9-1.339 8.94-5.915 14.07-9.711 10.73-23.439 2.69-65.071.79 0 0-40.963-1.79-49.669-11.96-1.674-2.01-2.678-4.243-2.678-4.243-1.675-4.357-1.451-8.379-1.34-10.055 10.715-103.677 4.911-158.867 21.653-279.526 7.962-57.276 23.03-142.425 45.204-255.449l3.349-41.747v-14.587c0-20.711 12.083-39.034 30.135-47.524V198.933c0-2.468 1.999-4.468 4.465-4.468h10.045c2.466 0 4.465 2 4.465 4.468V345.58z" fill="#474BFF"/>
      <path d="M672.588 306.004c-3.508 7.021-10.318 12.209-18.73 13.323-13.394 1.787-25.783-7.597-27.569-21.116-1.786-13.518 7.59-25.807 21.095-27.595 3.24-.432 6.421-.211 9.408.565l-2.153-4.747-3.125-5.953v.372c.669-.558 1.451-.893 2.232-1.451l4.911-2.455c2.456-.893 5.469-1.897 8.929-3.125l1.005-.335c.111 0 .335-.112.446-.223l1.563-.558h.223l2.455-.781c2.679-.782 5.693-1.675 8.706-2.567 2.902-.893 5.804-1.786 8.595-2.679l2.455-.67h.223l1.675-.446.446-.223 1.005-.224c3.46-.892 6.585-1.785 9.152-2.343l5.692-.782c.893-.111 1.786-.223 2.679-.558.112 2.121.335 4.242.558 6.474l7.367 45.759c.223 1.34.223 2.567 0 3.795-.112.558-.224 1.004-.447 1.786-.558 1.897-1.786 3.459-3.348 4.799-1.34 1.116-2.456 1.786-7.813 3.571-2.456.782-5.804 1.898-9.599 3.125-3.795 1.116-7.143 2.009-9.599 2.902-5.469 1.451-7.032 1.674-8.594 1.451-1.898-.223-3.795-1.116-5.358-2.232-.446-.223-.893-.67-1.227-1.228-.782-.893-1.675-2.009-2.121-3.125l-1.137-2.506zm-20.181 2.709c7.701-1.005 13.058-8.156 12.054-15.753-1.005-7.597-8.148-13.071-15.738-12.066-7.589 1.006-13.059 8.156-12.054 15.753 1.116 7.821 8.148 13.072 15.738 12.066z" fill="#FFCB3D"/>
      <path d="M654.527 258.564c1.117-.447 2.567-1.005 4.242-1.564 2.455-.894 5.469-1.899 8.929-3.128l1.004-.335c.112 0 .335-.112.447-.224l1.562-.558h.224l2.455-.783c2.679-.782 5.693-1.675 8.706-2.569 2.902-.894 5.804-1.788 8.594-2.681l2.456-.671h.223l1.674-.447.447-.223 1.004-.224c3.46-.893 6.586-1.787 9.153-2.346 1.786-.447 3.125-.782 4.464-1.005 2.233-.447 3.572-.559 3.572-.224 0 .224-.558.671-1.898 1.229-4.129 2.011-14.733 5.922-27.68 10.055l-1.004.224-1.005.335c-13.059 3.798-23.997 6.368-28.685 6.927-1.451.223-2.12.111-2.232 0 0-.224 1.116-.894 3.348-1.788z" fill="#474961"/>
      <path d="M659.836 193.932c2.415.284 4.948.606 7.599.966-8.464 7.818-14.907 12.116-19.329 12.892-6.632 1.165-3.56 1.165-14.871 1.165-7.54 0-16.024-4.553-25.451-13.658 5.724-.889 10.931-1.577 15.62-2.062l-.217-9.853c-5.797 2.157-5.474 1.94-6.045 2.131-7.032 1.788-13.059 1.564-14.175 1.341-4.018-.335-8.26-3.687-12.055-9.385-5.134-7.597-9.71-19.439-12.166-33.628-.446-2.011-.558-4.022-.669-6.033l-.447-19.998c-.111-4.469.893-8.938 3.126-12.96.892-1.787 1.785-3.24 2.901-4.468.035-.045.069-.089.104-.132.041-.067.081-.135.12-.204 8.594-11.9538 26.564-13.5179 34.823-12.6241 1.005.1117 4.577.5586 9.711.8937 2.79.2235 5.022.2235 6.362.3352 16.63.6703 23.216-1.3407 31.587 3.1282 1.562.782 5.134 2.793 8.259 6.7033 8.818 11.0607 6.697 25.3607 6.139 29.6057-2.009 12.737-9.376 20.557-11.608 23.797-2.663 3.931-7.152 8.737-10.342 11.976l1.024 30.071zm110.328 268.059l34.747 62.511c3.572 7.121-3.237 15.06-10.38 12.024-13.789-5.869-25.114-13.636-34.188-21.586-1.1-7.879-3.387-21.376-6.862-40.491l-.035.016c-2.262-12.435-5.023-27.232-8.283-44.392v-5.754l52.905-73.6c-18.286-16.109-25.523-20.717-43.588-38.567 20.207-12.127 31.934-14.012 41.196-22.737 6.586-6.205 13.617-15.558 16.202-21.753 29.561 22.8 48.595 41.703 52.712 52.257 3.349 8.606 4.019 17.099 4.019 17.099 1.004 14.041-3.349 25.138-5.023 29.328-11.78 29.586-65.887 74.269-93.422 95.645zM639.176 280.425c2.42-.254 4.978.845 6.417 2.964l1.77 2.733c1.468 2.318 1.343 5.109-.025 7.184 1.819.299 3.51 1.346 4.577 3.039l1.723 2.763c.936 1.535 1.183 3.262.847 4.847 1.481.465 2.801 1.423 3.64 2.785l1.722 2.763c1.954 3.206.908 7.247-2.185 9.089L639.748 329.3c-31.728 24.637-60.727 53.93-93.913 75.983-39.623 25.584-67.638 28.153-84.268 17.875-14.51-8.938-29.69-12.848-14.399-57.536 4.837-13.945 19.066-35.862 32.22-55.714 4.764 3.294 14.102 6.942 32.512 9.585 9.569 1.374 20.928-.164 27.904 0 4.223.1 9.602-.572 16.135-2.016l.317.168 1.116 11.43c-13.123 7.606-19.685 11.409-19.685 11.409 19.359-11.097 31.047-17.912 35.065-20.445l10.404-6.342c20.07-17.901 52.96-48.08 52.96-48.08 5.061 3.929 5.237 9.282 3.06 14.808z" fill="#F2A98A"/>
      <path d="M622.946 183.317l15.96-6.965-15.424 18.113-.536-11.148zM663.201 133.581c.027-3.082-.795-6.224-2.753-8.956-3.572-5.027-10.268-7.82-15.626-6.033-3.013 1.006-5.023 3.352-5.246 3.575-3.013 3.799-3.683 7.821-3.683 7.821l-.082.806c-8.055-8.358-18.08-18.69-25.618-26.635-4.584 1.259-12.149 2.518-20.745.686-1.515-.336-3.359-1.022-5.533-2.057-.069-.033-.136-.069-.201-.108-1.107-.666-1.465-2.105-.799-3.2134 8.94-12.2453 27.737-13.8475 36.333-12.932 1.146.1145 4.813.5722 10.2.9156 2.98.2289 5.272.2289 6.648.3433 17.421.6866 24.298-1.3733 33.008 3.2044 1.605.8011 5.387 2.861 8.596 6.8665 9.972 12.1306 7.565 26.8936 6.419 30.3276-.803 2.403-1.503 3.922-2.729 4.729-.657.433-8.579.654-18.189.66zm-81.664-2.029c-1.116-.224-1.451-1.676-.67-2.458 1.005-.894 2.791-1.788 5.023-1.788 4.576 0 9.487 3.017 4.353 4.357-3.014.783-6.585.336-8.706-.111zm22.992.782c-1.116-.224-1.451-1.676-.558-2.458 1.005-.894 2.791-1.788 5.135-1.788 4.576 0 9.487 3.129 4.353 4.358-3.237.893-6.809.335-8.93-.112zM590.243 139.372c-.112 1.899-.447 5.028-1.563 6.145-1.897 1.676-4.353-3.91-2.902-7.374.558-1.452 1.34-1.676 2.233-1.564 1.339.224 2.232 1.453 2.232 2.793zm19.979-.223c.111 1.899.111 5.027-1.005 6.368-1.674 1.899-4.799-3.463-3.683-7.039.446-1.452 1.228-1.787 2.121-1.787 1.339 0 2.455 1.117 2.567 2.458zM601.069 162.052c.782-.224 2.679-.782 3.014-2.011 0-.224.111-.559 0-.782-.447-.782-1.786-.336-3.795-.224-3.572.224-6.474-.112-6.474-.112s.782 2.235 1.34 2.905c1.116 1.676 4.687.559 5.915.224z" fill="#482D1F"/>
      <path fill-rule="evenodd" clip-rule="evenodd" d="M594.596 131.887c.616 0 1.116.5 1.116 1.117v6.592c0 .052-.004.103-.011.155l-1.674 11.954c-.001.006-.002.012-.003.019.002.009.01.033.038.069.024.031.055.058.087.078.019.011.035.018.049.023.033.003.067.005.1.008 1.375.106 2.676.206 5.097.206.616 0 1.116.501 1.116 1.118 0 .617-.5 1.117-1.116 1.117-2.507 0-3.873-.106-5.27-.214-.058-.004-.115-.008-.173-.013-.033-.002-.066-.006-.098-.012-1.171-.195-2.254-1.352-2.036-2.721l1.661-11.865v-6.514c0-.617.5-1.117 1.117-1.117zm-.573 19.832v.002z" fill="#482D1F"/>
      <path d="M662.917 130.719c-.095-.61.321-1.181.93-1.277.609-.095 1.18.322 1.275.932.585 3.745-.083 7.79-1.778 11.062-1.179 2.36-2.813 4.26-4.766 5.774-1.325 1.028-2.47 1.671-3.913 2.338-.559.258-1.222.014-1.481-.546-.258-.561-.014-1.224.546-1.483 3.281-1.516 5.82-3.485 7.625-7.097 1.484-2.866 2.073-6.43 1.562-9.703zM558.228 328.176c.034.054.065.11.093.169.403.833.055 1.835-.777 2.238l-32.369 15.682c-.832.403-1.833.055-2.236-.778-.403-.833-.055-1.836.778-2.239l31.317-15.173c-.041-.148-.063-.305-.061-.467.046-5.538.083-10.849.167-23.458.084-12.612.121-17.924.167-23.464.008-.926.764-1.67 1.689-1.662.924.008 1.668.764 1.66 1.69-.047 5.538-.084 10.849-.168 23.458-.083 12.612-.121 17.924-.167 23.465-.002.189-.034.37-.093.539z" fill="#482D1F"/>
      <path opacity=".2" d="M752.195 467.411l16.442-8.167 36.274 65.258c3.572 7.121-3.237 15.06-10.38 12.024-13.789-5.869-25.114-13.636-34.188-21.587-1.23-8.812-3.946-24.655-8.148-47.528z" fill="#8C2A00"/>
      <path opacity=".176986" d="M600.238 373.092c-.172 12.206-1.915 20.726-5.229 25.562-3.628 5.293-11.756 10.044-24.384 14.254-2.772.924-4.626 3.54-4.58 6.464.108 7.006-.153 12.241-.783 15.706-.772 4.242-.772 14.904 0 31.986l153.667-3.301 1.25-28.685-1.753-18.447c-.276-2.901-2.392-5.291-5.236-5.914-10.418-2.28-17.673-6.461-21.766-12.542-3.706-5.506-5.355-13.713-4.948-24.623.184-4.933-3.662-9.081-8.59-9.265-.111-.004-.222-.006-.333-.006h-68.387c-4.882 0-8.859 3.925-8.928 8.811z" fill="#444"/>
    </g>
    <path d="M498.331 521.543h-15.149c3.99-4.277 7.371-6.754 10.143-7.43 2.196-.535 6.66-.325 13.394.63.609-.283 1.194-.493 1.754-.63.768-.187 1.684-.284 2.75-.291l-5.948-8.63 10.26 2.04-2.913-3.439 16.643 4.95 5.683 12.8h-36.617zm19.918-6.916c1.355.265 2.818.595 4.389.99l-5.667-6.69 1.278 5.7z" fill="#482D1F"/>
    <path d="M484.06 449.597c-6.37 4.421-7.859 11.777-4.465 22.071 5.09 15.44 15.967 30.834 28.187 34.864 12.22 4.029 23.018 2.965 23.018-6.632s-7.401-56.241-20.825-56.241c-8.949 0-17.587 1.979-25.915 5.938z" fill="#FFCB3D"/>
    <path d="M480.821 431.762c3.787-3.881 10.288-6.91 19.503-9.088 14.425-3.408 17.715-13.043 19.476-10.569 1.173 1.649-1.003 5.172-6.529 10.569 8.227-4.084 12.341-5.105 12.341-3.063 0 2.042-3.244 4.982-9.733 8.82 6.489-1.466 9.733-1.233 9.733.7 0 1.893-5.859 4.728-17.576 8.503.358 1.369.612 2.768.781 4.044 6.071.697 9.796 2.801 11.176 6.312 9.805 24.962 12.999 52.195 16.934 59.817 4.781 9.259 4.781 13.569 0 12.929-10.456-4.363-18.851-9.706-25.186-16.028-9.502-9.484-12.497-18.898-16.455-28.507-1.738-4.219-.425-10.654 3.94-19.307-1.701.368-3.708.581-6.077.583h-5.647c-6.866.013-10.299-2.512-10.299-7.575 0-6.752 0-15.17 3.618-18.14z" fill="#A339FF"/>
    <path d="M487.883 450.936l6.202-6.856c.121 1.873.002 3.442-.357 4.706-.539 1.896-1.178 2.082-1.74 2.676-.811.857-2.179.682-4.105-.526z" fill="#DE6903"/>
    <path d="M485.046 441.962c-2.803 6.778-3.737 10.903-2.803 12.373 1.4 2.204 1.804.424 8.406-3.554.844-.509 1.991-2.739 3.441-6.691-1.554-1.292-3.207-2.144-4.959-2.557-1.753-.412-3.115-.269-4.085.429z" fill="#FFCB3D"/>
    <path d="M553.743 521.543h-92.885c-1.761 0-3.189 1.446-3.189 3.229 0 1.783 1.428 3.228 3.189 3.228h92.885c1.762 0 3.189-1.445 3.189-3.228 0-1.783-1.427-3.229-3.189-3.229z" fill="#E1E5F0"/>
    <path d="M464.06 378.687c.57-17.679 19.8-31.88 43.44-31.88 23.64 0 42.87 14.201 43.44 31.88h5.992v7.264h-6.777v135.592h-4.385V385.951h-36.675v135.592h-4.386V385.951h-36.675v135.592h-4.385V385.951h-5.98v-7.264h6.391z" fill="#D8DEED"/>
    <path d="M498.331 445.676c-1.101 0-1.993-.903-1.993-2.017 0-1.115.892-2.018 1.993-2.018s1.993.903 1.993 2.018c0 1.114-.892 2.017-1.993 2.017zm-18.736 0c-1.101 0-1.994-.903-1.994-2.017 0-1.115.893-2.018 1.994-2.018 1.1 0 1.993.903 1.993 2.018 0 1.114-.893 2.017-1.993 2.017z" fill="#482D1F"/>
    <path d="M388.975 538.934v279.208c0 3.02-2.456 5.467-5.487 5.467S378 821.162 378 818.142V533.858c0-2.631 1.865-4.828 4.35-5.35.703-.326 1.487-.508 2.314-.508H851.12c3.031 0 5.488 2.448 5.488 5.467 0 3.019-2.457 5.467-5.488 5.467H388.975z" fill="#D8DEED"/>
    <path d="M37.5284 268h18.6222v-5.071H43.679v-24.02h-6.1506V268zm32.4396.426c6.6194 0 10.7387-4.531 10.7387-11.25 0-6.761-4.1193-11.278-10.7387-11.278-6.6193 0-10.7386 4.517-10.7386 11.278 0 6.719 4.1193 11.25 10.7386 11.25zm.0284-4.687c-3.0539 0-4.6164-2.799-4.6164-6.605 0-3.807 1.5625-6.62 4.6164-6.62 2.9972 0 4.5597 2.813 4.5597 6.62 0 3.806-1.5625 6.605-4.5597 6.605zm24.4745 12.755c6.2361 0 10.6671-2.841 10.6671-8.281v-22.031H99.13v3.665h-.2273c-.8097-1.776-2.5852-3.949-6.2358-3.949-4.7869 0-8.8352 3.721-8.8352 11.15 0 7.259 3.9346 10.64 8.8494 10.64 3.4801 0 5.4261-1.748 6.2216-3.552h.2557v3.992c0 2.855-1.9176 4.02-4.5455 4.02-2.6704 0-4.0199-1.165-4.517-2.344l-5.5966.753c.7244 3.295 4.0909 5.937 9.9716 5.937zm.1278-13.352c-2.9687 0-4.588-2.358-4.588-6.122 0-3.708 1.5909-6.307 4.588-6.307 2.9404 0 4.5881 2.486 4.5881 6.307 0 3.849-1.6761 6.122-4.5881 6.122zm25.2133 5.284c6.619 0 10.738-4.531 10.738-11.25 0-6.761-4.119-11.278-10.738-11.278-6.62 0-10.739 4.517-10.739 11.278 0 6.719 4.119 11.25 10.739 11.25zm.028-4.687c-3.054 0-4.616-2.799-4.616-6.605 0-3.807 1.562-6.62 4.616-6.62 2.997 0 4.56 2.813 4.56 6.62 0 3.806-1.563 6.605-4.56 6.605zm23.903 12.443h6.051v-11.676h.185c.838 1.818 2.67 3.849 6.193 3.849 4.971 0 8.849-3.935 8.849-11.236 0-7.5-4.048-11.221-8.835-11.221-3.65 0-5.398 2.173-6.207 3.949h-.27v-3.665h-5.966v30zm5.923-19.091c0-3.892 1.648-6.378 4.588-6.378 2.997 0 4.588 2.599 4.588 6.378 0 3.807-1.619 6.449-4.588 6.449-2.912 0-4.588-2.557-4.588-6.449zM169.055 268h6.052v-12.344c0-2.684 1.96-4.531 4.63-4.531.838 0 1.989.142 2.557.327v-5.37c-.54-.127-1.293-.213-1.903-.213-2.444 0-4.446 1.421-5.242 4.12h-.227v-3.807h-5.867V268zm25.295.426c5.398 0 9.034-2.628 9.887-6.676l-5.597-.369c-.611 1.662-2.173 2.528-4.19 2.528-3.026 0-4.944-2.003-4.944-5.256v-.014h14.858v-1.662c0-7.415-4.488-11.079-10.255-11.079-6.421 0-10.583 4.559-10.583 11.292 0 6.918 4.105 11.236 10.824 11.236zm-4.844-13.537c.128-2.486 2.017-4.474 4.702-4.474 2.628 0 4.446 1.875 4.46 4.474h-9.162zm38.797-8.707h-6.407l-4.517 15.611h-.227l-4.531-15.611h-6.392L213.857 268h6.818l7.628-21.818zM231.399 268h6.051v-21.818h-6.051V268zm3.04-24.631c1.804 0 3.281-1.378 3.281-3.068 0-1.676-1.477-3.054-3.281-3.054-1.79 0-3.267 1.378-3.267 3.054 0 1.69 1.477 3.068 3.267 3.068zm17.802 25.057c5.397 0 9.034-2.628 9.886-6.676l-5.596-.369c-.611 1.662-2.174 2.528-4.191 2.528-3.025 0-4.943-2.003-4.943-5.256v-.014h14.858v-1.662c0-7.415-4.489-11.079-10.256-11.079-6.42 0-10.582 4.559-10.582 11.292 0 6.918 4.105 11.236 10.824 11.236zm-4.844-13.537c.128-2.486 2.017-4.474 4.702-4.474 2.628 0 4.446 1.875 4.46 4.474h-9.162zM270.352 268h6.392l3.75-13.722h.269l3.75 13.722h6.407l5.923-21.818h-6.108l-3.324 14.574h-.184l-3.58-14.574h-6.009l-3.522 14.659h-.199l-3.381-14.659h-6.122L270.352 268z" fill="#656464"/>
    <path d="M46.4098 302.909h-3.9151v-4.574h-3.7163v4.574h-2.7965v2.983h2.7965v11.273c-.0124 3.468 2.635 5.146 5.5682 5.084 1.1807-.013 1.9762-.237 2.4112-.398l-.6712-3.07c-.2485.05-.7084.161-1.305.161-1.2056 0-2.2869-.397-2.2869-2.547v-10.503h3.9151v-2.983zm8.2373 7.756c0-3.045 1.9265-4.785 4.5739-4.785 2.5603 0 4.0891 1.628 4.0891 4.424V322h3.7163v-12.143c0-4.76-2.6101-7.196-6.5377-7.196-2.9705 0-4.7603 1.292-5.6552 3.355h-.2361v-9.471h-3.6666V322h3.7163v-11.335zm25.5664 11.72c4.1637 0 7.1094-2.05 7.9546-5.158l-3.5174-.634c-.6712 1.803-2.287 2.722-4.3999 2.722-3.1818 0-5.3196-2.063-5.419-5.742h13.5724v-1.317c0-6.898-4.1264-9.595-8.4517-9.595-5.3196 0-8.8246 4.051-8.8246 9.918 0 5.928 3.4553 9.806 9.0856 9.806zm-5.3693-11.596c.1491-2.709 2.1129-5.059 5.1332-5.059 2.8835 0 4.7727 2.138 4.7851 5.059h-9.9183zm26.9458 18.37h3.716v-10.13h.224c.671 1.219 2.039 3.344 5.519 3.344 4.623 0 7.979-3.704 7.979-9.881 0-6.19-3.405-9.831-8.017-9.831-3.542 0-4.822 2.162-5.481 3.343h-.311v-3.095h-3.629v26.25zm3.642-16.704c0-3.99 1.74-6.638 4.984-6.638 3.368 0 5.059 2.847 5.059 6.638 0 3.828-1.741 6.748-5.059 6.748-3.194 0-4.984-2.734-4.984-6.748zm17.96 9.545h3.716v-11.658c0-2.499 1.927-4.301 4.561-4.301.771 0 1.641.137 1.939.224v-3.555c-.372-.049-1.106-.087-1.578-.087-2.237 0-4.151 1.268-4.847 3.319h-.199v-3.033h-3.592V322zm20.79.385c5.382 0 8.899-3.94 8.899-9.843 0-5.942-3.517-9.881-8.899-9.881-5.381 0-8.899 3.939-8.899 9.881 0 5.903 3.518 9.843 8.899 9.843zm.013-3.119c-3.518 0-5.158-3.07-5.158-6.737 0-3.654 1.64-6.761 5.158-6.761 3.492 0 5.133 3.107 5.133 6.761 0 3.667-1.641 6.737-5.133 6.737zm13.035-16.357v20.284c0 1.778-.734 2.747-2.499 2.747-.211 0-.372 0-.596-.012v3.206h.721c3.989.05 6.09-2.088 6.09-5.916v-20.309h-3.716zm1.839-2.946c1.28 0 2.349-.994 2.349-2.212 0-1.218-1.069-2.225-2.349-2.225-1.292 0-2.349 1.007-2.349 2.225 0 1.218 1.057 2.212 2.349 2.212zm15.104 22.422c4.164 0 7.11-2.05 7.955-5.158l-3.517-.634c-.672 1.803-2.287 2.722-4.4 2.722-3.182 0-5.32-2.063-5.419-5.742h13.572v-1.317c0-6.898-4.126-9.595-8.452-9.595-5.319 0-8.824 4.051-8.824 9.918 0 5.928 3.455 9.806 9.085 9.806zm-5.369-11.596c.149-2.709 2.113-5.059 5.133-5.059 2.884 0 4.773 2.138 4.785 5.059h-9.918zm25.725 11.596c4.512 0 7.433-2.709 7.843-6.425h-3.617c-.472 2.063-2.076 3.281-4.201 3.281-3.145 0-5.171-2.623-5.171-6.786 0-4.09 2.064-6.662 5.171-6.662 2.361 0 3.803 1.491 4.201 3.281h3.617c-.398-3.853-3.543-6.413-7.88-6.413-5.382 0-8.862 4.051-8.862 9.881 0 5.754 3.356 9.843 8.899 9.843zm20.728-19.476h-3.915v-4.574h-3.716v4.574h-2.796v2.983h2.796v11.273c-.012 3.468 2.635 5.146 5.568 5.084 1.181-.013 1.976-.237 2.411-.398l-.671-3.07c-.248.05-.708.161-1.305.161-1.205 0-2.287-.397-2.287-2.547v-10.503h3.915v-2.983zM228.631 322h3.716v-19.091h-3.716V322zm1.877-22.037c1.28 0 2.349-.994 2.349-2.212 0-1.218-1.069-2.225-2.349-2.225-1.293 0-2.349 1.007-2.349 2.225 0 1.218 1.056 2.212 2.349 2.212zm21.145 7.607c-.771-2.971-3.095-4.909-7.222-4.909-4.312 0-7.37 2.274-7.37 5.655 0 2.709 1.641 4.511 5.22 5.307l3.232.708c1.839.41 2.697 1.231 2.697 2.424 0 1.479-1.579 2.635-4.015 2.635-2.225 0-3.654-.957-4.101-2.834l-3.592.547c.621 3.381 3.43 5.282 7.718 5.282 4.611 0 7.805-2.448 7.805-5.903 0-2.698-1.715-4.363-5.22-5.171l-3.032-.696c-2.101-.497-3.008-1.206-2.996-2.498-.012-1.467 1.579-2.511 3.692-2.511 2.311 0 3.38 1.28 3.815 2.561l3.369-.597zm21.763 14.815c4.511 0 7.432-2.709 7.842-6.425h-3.616c-.473 2.063-2.076 3.281-4.201 3.281-3.145 0-5.171-2.623-5.171-6.786 0-4.09 2.063-6.662 5.171-6.662 2.361 0 3.803 1.491 4.201 3.281h3.616c-.397-3.853-3.542-6.413-7.88-6.413-5.381 0-8.861 4.051-8.861 9.881 0 5.754 3.355 9.843 8.899 9.843zm23.91-8.302c.012 3.244-2.399 4.785-4.487 4.785-2.299 0-3.89-1.666-3.89-4.263v-11.696h-3.716v12.143c0 4.736 2.597 7.197 6.264 7.197 2.871 0 4.822-1.517 5.705-3.555h.199V322h3.654v-19.091h-3.729v11.174zm8.722 7.917h3.716v-11.658c0-2.499 1.927-4.301 4.562-4.301.77 0 1.64.137 1.939.224v-3.555c-.373-.049-1.107-.087-1.579-.087-2.237 0-4.151 1.268-4.847 3.319h-.199v-3.033h-3.592V322zm13.433 0h3.716v-11.658c0-2.499 1.926-4.301 4.561-4.301.771 0 1.641.137 1.939.224v-3.555c-.373-.049-1.106-.087-1.578-.087-2.237 0-4.151 1.268-4.848 3.319h-.198v-3.033h-3.592V322zm20.977.385c4.163 0 7.109-2.05 7.954-5.158l-3.517-.634c-.671 1.803-2.287 2.722-4.4 2.722-3.182 0-5.32-2.063-5.419-5.742h13.572v-1.317c0-6.898-4.126-9.595-8.451-9.595-5.32 0-8.825 4.051-8.825 9.918 0 5.928 3.455 9.806 9.086 9.806zm-5.37-11.596c.149-2.709 2.113-5.059 5.134-5.059 2.883 0 4.772 2.138 4.785 5.059h-9.919zm21.4-.124c0-3.045 1.864-4.785 4.45-4.785 2.523 0 4.051 1.653 4.051 4.424V322h3.717v-12.143c0-4.723-2.598-7.196-6.501-7.196-2.871 0-4.748 1.329-5.63 3.355h-.236v-3.107h-3.567V322h3.716v-11.335zm26.113-7.756h-3.915v-4.574h-3.716v4.574h-2.797v2.983h2.797v11.273c-.013 3.468 2.635 5.146 5.568 5.084 1.181-.013 1.976-.237 2.411-.398l-.671-3.07c-.249.05-.708.161-1.305.161-1.206 0-2.287-.397-2.287-2.547v-10.503h3.915v-2.983zm8.238-6.364h-3.717V322h3.717v-25.455zm7.348 32.564c3.07 0 5.021-1.603 6.115-4.561l7.893-21.602-4.015-.037-4.835 14.815h-.199l-4.835-14.815h-3.977l6.985 19.34-.46 1.267c-.944 2.474-2.274 2.697-4.312 2.138l-.895 3.045c.447.212 1.417.41 2.535.41zM37.7965 364h3.6293v-2.971h.3107c.6712 1.219 2.0384 3.344 5.5185 3.344 4.6236 0 7.9794-3.704 7.9794-9.881 0-6.19-3.4056-9.831-8.0167-9.831-3.5423 0-4.8225 2.162-5.4812 3.343h-.2237v-9.459h-3.7163V364zm3.6417-9.545c0-3.99 1.7401-6.638 4.984-6.638 3.3683 0 5.0586 2.847 5.0586 6.638 0 3.828-1.74 6.748-5.0586 6.748-3.1942 0-4.984-2.734-4.984-6.748zm26.1972 9.93c4.1637 0 7.1094-2.05 7.9545-5.158l-3.5174-.634c-.6711 1.803-2.2869 2.722-4.3998 2.722-3.1818 0-5.3196-2.063-5.4191-5.742h13.5725v-1.317c0-6.898-4.1264-9.595-8.4517-9.595-5.3196 0-8.8246 4.051-8.8246 9.918 0 5.928 3.4553 9.806 9.0856 9.806zm-5.3693-11.596c.1491-2.709 2.1129-5.059 5.1331-5.059 2.8836 0 4.7728 2.138 4.7852 5.059h-9.9183zM79.9494 364h3.7163v-19.091h-3.7163V364zm1.8768-22.037c1.2802 0 2.349-.994 2.349-2.212 0-1.218-1.0688-2.225-2.349-2.225-1.2926 0-2.3491 1.007-2.3491 2.225 0 1.218 1.0565 2.212 2.3491 2.212zm10.5553 10.702c0-3.045 1.8643-4.785 4.4496-4.785 2.523 0 4.0519 1.653 4.0519 4.424V364h3.716v-12.143c0-4.723-2.597-7.196-6.5002-7.196-2.8711 0-4.7479 1.329-5.6303 3.355h-.2362v-3.107h-3.5671V364h3.7163v-11.335zm25.2055 18.855c4.86 0 8.614-2.225 8.614-7.097v-19.514h-3.642v3.095h-.273c-.659-1.181-1.977-3.343-5.531-3.343-4.611 0-8.005 3.641-8.005 9.719 0 6.09 3.468 9.334 7.98 9.334 3.505 0 4.86-1.976 5.531-3.194h.236v3.753c0 2.946-2.051 4.251-4.872 4.251-3.095 0-4.301-1.553-4.959-2.61l-3.195 1.318c1.007 2.299 3.555 4.288 8.116 4.288zm-.037-10.888c-3.318 0-5.046-2.548-5.046-6.302 0-3.666 1.69-6.513 5.046-6.513 3.244 0 4.984 2.648 4.984 6.513 0 3.94-1.777 6.302-4.984 6.302zm30.044 3.741c3.48 0 4.847-2.125 5.519-3.344h.31V364h3.63v-25.455h-3.717v9.459h-.223c-.672-1.181-1.939-3.343-5.494-3.343-4.611 0-8.004 3.641-8.004 9.831 0 6.177 3.343 9.881 7.979 9.881zm.82-3.17c-3.318 0-5.046-2.92-5.046-6.748 0-3.791 1.691-6.638 5.046-6.638 3.244 0 4.984 2.648 4.984 6.638 0 4.014-1.777 6.748-4.984 6.748zm22.171 3.182c4.163 0 7.109-2.05 7.954-5.158l-3.517-.634c-.671 1.803-2.287 2.722-4.4 2.722-3.182 0-5.32-2.063-5.419-5.742h13.572v-1.317c0-6.898-4.126-9.595-8.451-9.595-5.32 0-8.825 4.051-8.825 9.918 0 5.928 3.455 9.806 9.086 9.806zm-5.37-11.596c.149-2.709 2.113-5.059 5.133-5.059 2.884 0 4.773 2.138 4.786 5.059h-9.919zm33.913-7.88h-3.99l-4.822 14.691h-.199l-4.835-14.691h-3.99L188.228 364h3.977l6.923-19.091zm11.037 19.476c4.163 0 7.109-2.05 7.954-5.158l-3.517-.634c-.671 1.803-2.287 2.722-4.4 2.722-3.182 0-5.32-2.063-5.419-5.742h13.572v-1.317c0-6.898-4.126-9.595-8.451-9.595-5.32 0-8.825 4.051-8.825 9.918 0 5.928 3.455 9.806 9.086 9.806zm-5.37-11.596c.15-2.709 2.113-5.059 5.134-5.059 2.883 0 4.772 2.138 4.785 5.059h-9.919zm21.4-14.244h-3.716V364h3.716v-25.455zm13.041 25.84c5.382 0 8.899-3.94 8.899-9.843 0-5.942-3.517-9.881-8.899-9.881s-8.899 3.939-8.899 9.881c0 5.903 3.517 9.843 8.899 9.843zm.012-3.119c-3.517 0-5.158-3.07-5.158-6.737 0-3.654 1.641-6.761 5.158-6.761 3.493 0 5.134 3.107 5.134 6.761 0 3.667-1.641 6.737-5.134 6.737zm13.035 9.893H256v-10.13h.223c.672 1.219 2.039 3.344 5.519 3.344 4.623 0 7.979-3.704 7.979-9.881 0-6.19-3.405-9.831-8.016-9.831-3.543 0-4.823 2.162-5.482 3.343h-.31v-3.095h-3.63v26.25zm3.642-16.704c0-3.99 1.74-6.638 4.984-6.638 3.368 0 5.059 2.847 5.059 6.638 0 3.828-1.74 6.748-5.059 6.748-3.194 0-4.984-2.734-4.984-6.748zm26.188 9.93c4.164 0 7.109-2.05 7.954-5.158l-3.517-.634c-.671 1.803-2.287 2.722-4.4 2.722-3.182 0-5.319-2.063-5.419-5.742h13.573v-1.317c0-6.898-4.127-9.595-8.452-9.595-5.32 0-8.825 4.051-8.825 9.918 0 5.928 3.456 9.806 9.086 9.806zm-5.369-11.596c.149-2.709 2.113-5.059 5.133-5.059 2.883 0 4.773 2.138 4.785 5.059h-9.918zm24.83 11.584c3.48 0 4.847-2.125 5.518-3.344h.311V364h3.629v-25.455h-3.716v9.459h-.224c-.671-1.181-1.939-3.343-5.494-3.343-4.611 0-8.004 3.641-8.004 9.831 0 6.177 3.344 9.881 7.98 9.881zm.82-3.17c-3.319 0-5.046-2.92-5.046-6.748 0-3.791 1.69-6.638 5.046-6.638 3.244 0 4.984 2.648 4.984 6.638 0 4.014-1.777 6.748-4.984 6.748z" fill="#656464" fill-opacity=".55"/>
    <path d="M148.636 202.729H44.704c-4.0811 0-7.4139-3.004-7.4139-6.683v-61.71c0-3.679 3.3328-6.683 7.4139-6.683h103.932c4.081 0 7.414 3.004 7.414 6.683v61.68c0 3.709-3.333 6.713-7.414 6.713z" fill="#F2F6FB"/>
    <path d="M37.3243 127.249c0-3.736 3.0457-6.765 6.8023-6.765H149.213c3.757 0 6.803 3.03 6.803 6.765v7.776H37.3243v-7.776z" fill="#E1E5F0"/>
    <path d="M72.1984 168.455l13.5415 7.34c1.1531.625 1.5757 2.056.944 3.197-.6317 1.141-2.0785 1.559-3.2316.934l-16.6639-9.032c-1.4874-.806-1.6699-2.849-.3486-3.901l15.8734-12.635c1.0243-.816 2.5229-.655 3.347.358.8242 1.014.662 2.496-.3624 3.312l-13.0994 10.427zm36.2426 7.463l12.804-8.828-13.488-8.93c-1.081-.715-1.38-2.176-.668-3.262.711-1.087 2.164-1.387 3.245-.672l16.4 10.857c1.39.92 1.409 2.963.036 3.909l-15.679 10.811c-1.067.735-2.525.462-3.257-.61-.732-1.073-.46-2.539.607-3.275zm-13.064 7.88c-.2888 1.265-1.5525 2.057-2.8226 1.77-1.2702-.288-2.0658-1.547-1.7771-2.812l7.1851-31.486c.2888-1.265 1.5525-2.057 2.8226-1.77 1.27.288 2.066 1.547 1.777 2.812l-7.185 31.486z" fill="#474BFF"/>
  </g>
  <defs>
    <clipPath id="clip0">
      <path fill="#fff" d="M0 0h800v564.704H0z"/>
    </clipPath>
    <clipPath id="clip1">
      <path d="M68 28h1134v1058H68V28z" fill="#fff"/>
    </clipPath>
  </defs>
</svg>
